<svg xmlns="http://www.w3.org/2000/svg" viewBox="0 0 750 500"><defs><style>.cls-1{isolation:isolate;}.cls-2{opacity:0.15;}.cls-15,.cls-3{fill:#2d71b8;}.cls-3,.cls-4{opacity:0.79;}.cls-4{fill:#d8d6d6;}.cls-5{fill:#c4c4c4;}.cls-13,.cls-6{fill:#f05623;}.cls-7{fill:#e5451a;}.cls-8{fill:#fff;}.cls-9{fill:#dbdcdd;}.cls-10,.cls-11,.cls-14,.cls-21,.cls-22,.cls-24,.cls-29,.cls-32,.cls-34,.cls-37,.cls-41{fill:none;}.cls-10{stroke:#fff;}.cls-10,.cls-20,.cls-21,.cls-32,.cls-34,.cls-37,.cls-41{stroke-linecap:round;}.cls-10,.cls-20,.cls-21,.cls-41{stroke-linejoin:round;}.cls-10,.cls-41{stroke-width:0.98px;}.cls-11{stroke:#e5451a;}.cls-11,.cls-14,.cls-19,.cls-22,.cls-24,.cls-29,.cls-32,.cls-34,.cls-37{stroke-miterlimit:10;}.cls-12{fill:#8e8d8d;opacity:0.37;}.cls-12,.cls-33,.cls-38,.cls-39,.cls-40{mix-blend-mode:multiply;}.cls-13{opacity:0.5;}.cls-14{stroke:#000;}.cls-16{fill:#28669b;}.cls-17{fill:#fff6e7;}.cls-18{fill:#f4e0c7;}.cls-19,.cls-20{fill:#3071b5;stroke-width:0.25px;}.cls-19,.cls-20,.cls-24{stroke:#2d71b8;}.cls-21{stroke:#bf9182;}.cls-22{stroke:#28669b;}.cls-23{fill:#bf9182;}.cls-24{stroke-width:4px;}.cls-25{fill:#d42027;}.cls-26{fill:#b2b2b2;}.cls-27{fill:#0671b8;}.cls-28{fill:#930217;}.cls-29,.cls-32{stroke:#fefefe;}.cls-29{stroke-width:0.98px;}.cls-30{fill:#fefefe;}.cls-31{fill:#a3a3a3;}.cls-32{stroke-width:1.03px;}.cls-34{stroke:#020202;stroke-width:0.88px;}.cls-35{fill:#e5cfae;}.cls-36{fill:#bfbfbf;}.cls-37{stroke:#9e9e9e;}.cls-38{fill:#091255;}.cls-39{fill:#6d3e3b;}.cls-39,.cls-40{opacity:0.32;}.cls-41{stroke:#939393;}.cls-42{fill:#f21111;}</style></defs><g class="cls-1"><g id="OBJECTS"><g class="cls-2"><path class="cls-3" d="M307.8,407q-9.56.53-19.17.49c-70.31-.38-153.77-21.28-193.12-65.8-34.4-38.92-51.5-90.88-42.1-137,8.85-43.38,45.83-80.24,101.07-96.6,62.12-18.4,134.13-4.51,194.71-28.24C437.35,45.27,554.06,62,623.33,114.09c61.41,46.2,82.92,125.15,71.21,188-5.91,31.74-26.58,63.17-62.61,81-28.68,14.23-64.58,18.77-99.09,17.47-27.75-1-53.73-6.45-80.73-10.58-21.64-3.31-38.8,0-60.18,4.58C364.42,400.39,336.37,405.45,307.8,407Z"/><circle class="cls-3" cx="658" cy="74.23" r="28.89" transform="translate(432.74 696.92) rotate(-76.55)"/><circle class="cls-3" cx="77.06" cy="112.33" r="16.77" transform="translate(-52.22 69.4) rotate(-37.18)"/></g><rect class="cls-4" x="218.5" y="49.61" width="316.37" height="212.5"/><rect class="cls-5" x="211.9" y="49.61" width="316.37" height="205.96"/><rect class="cls-6" x="219.75" y="60.55" width="188.8" height="187.41"/><rect class="cls-4" x="192.89" y="41.08" width="353.79" height="8.53" rx="4.22"/><path class="cls-5" d="M542.46,41.08H201.54v0a4.22,4.22,0,0,0,4.23,4.22H546.68v0A4.22,4.22,0,0,0,542.46,41.08Z"/><rect class="cls-7" x="416.79" y="60.55" width="102.88" height="123.83"/><rect class="cls-7" x="416.79" y="194.48" width="102.88" height="53.48"/><rect class="cls-8" x="423.5" y="70.08" width="7.99" height="106.19"/><rect class="cls-9" x="437.08" y="93.59" width="7.99" height="82.68"/><rect class="cls-8" x="450.66" y="115.6" width="7.99" height="60.67"/><rect class="cls-9" x="464.23" y="123.18" width="7.99" height="53.09"/><rect class="cls-8" x="477.81" y="84.9" width="7.99" height="91.37"/><rect class="cls-9" x="491.39" y="130.59" width="7.99" height="45.68"/><rect class="cls-8" x="504.97" y="70.08" width="7.99" height="106.19"/><rect class="cls-9" x="226.41" y="65.92" width="174.36" height="7.29"/><polyline class="cls-10" points="429.01 240.01 450.88 218.84 468.23 232.01 485 201.59 504.99 238.62"/><line class="cls-10" x1="424.96" y1="243.49" x2="511.72" y2="243.49"/><rect class="cls-8" x="231.62" y="83.9" width="163.74" height="3.68"/><rect class="cls-8" x="231.62" y="97.2" width="163.74" height="3.68"/><rect class="cls-8" x="231.62" y="110.49" width="163.74" height="3.68"/><rect class="cls-8" x="231.62" y="123.78" width="163.74" height="3.68"/><rect class="cls-8" x="231.62" y="137.08" width="163.74" height="3.68"/><rect class="cls-8" x="231.62" y="150.37" width="163.74" height="3.68"/><path class="cls-8" d="M276.73,203.7v-33a33,33,0,1,0,27.39,14.62Z"/><polyline class="cls-11" points="219.75 60.55 219.75 247.97 408.55 247.97"/><path class="cls-12" d="M453.08,162.79l4.59-6.46a3,3,0,0,0-.48-4,3.53,3.53,0,0,0-.55-.37l-.05,0a3,3,0,0,0-3.75.77l-18.2,22.81h0l-9.14,11.46-14.69,18.41-9.12-24.14a25.26,25.26,0,0,0-12.2-13.6l-.09,0-14.74-7.27L365,155.54V147a7.11,7.11,0,0,0,.46-.62l.21-.27a15.15,15.15,0,0,0,1.52-2.65l.14-.33a15.83,15.83,0,0,0,.56-1.55c0-.15.09-.3.13-.46a15.23,15.23,0,0,0,.41-2l.29-.08.32-.1.28-.14a2.49,2.49,0,0,0,.28-.15l.25-.18a2.32,2.32,0,0,0,.25-.21l.2-.2.22-.27.16-.23a2.55,2.55,0,0,0,.17-.33A1.63,1.63,0,0,0,371,137c.05-.13.09-.27.13-.4a2.09,2.09,0,0,0,.05-.21,3,3,0,0,0,.07-.66h0a3.55,3.55,0,0,0-.08-.73s0-.08,0-.12a3.81,3.81,0,0,0-.19-.57l0-.06a4.08,4.08,0,0,0-.34-.57h0a4,4,0,0,0-.48-.52h0V120.85a4.33,4.33,0,0,0-1.78-3.49,3.35,3.35,0,0,0-.45-.27,4.17,4.17,0,0,0-1.2-.47,4.12,4.12,0,0,0-.86-.09h-5.21a6.69,6.69,0,0,0-4.8,2h-2.22a5.13,5.13,0,0,0-5.12,5.15v9.52a3.45,3.45,0,0,0,1.64,6,15.35,15.35,0,0,0,3.4,7.84v8.54l-.21-.28L343,160.28l-14.74,7.27-.13.08A27.22,27.22,0,0,0,314.87,191v64.54H389.4V215.12l11.5,16.22a10,10,0,0,0,11.3,3.72,10.13,10.13,0,0,0,2.09-1,10.4,10.4,0,0,0,1.86-1.49,12.27,12.27,0,0,0,.81-.93l23.16-30,6.56-8.51,2.35-3.05,1.62-2.1,7.05-9.15a8.92,8.92,0,0,0,1.44-2.72c0-.14.09-.27.12-.41a8.12,8.12,0,0,0,.28-1.37c0-.27,0-.53.06-.8a9.13,9.13,0,0,0-2.57-6.65ZM359,162.54l-1.11-1,0-.05,1.15,1.05Z"/><ellipse class="cls-13" cx="369.16" cy="429.6" rx="68.74" ry="5.4"/><polygon points="398.93 263.67 398.93 421.39 371.71 421.39 371.71 301.44 368.81 301.44 368.81 263.67 398.93 263.67"/><path d="M371.71,421.4v9.54h34.61a18.47,18.47,0,0,0-.39-3.4,7.71,7.71,0,0,0-7.55-6.14Z"/><line class="cls-14" x1="392.81" y1="263.67" x2="392.81" y2="421.4"/><polygon points="337.79 263.67 337.79 421.4 365.83 421.4 365.83 301.44 368.81 301.44 368.81 263.67 337.79 263.67"/><path d="M365.84,421.4v9.54h-35a18.06,18.06,0,0,1,.72-4.67,6.89,6.89,0,0,1,6.6-4.87Z"/><line class="cls-14" x1="344.19" y1="263.82" x2="344.19" y2="421.4"/><polygon class="cls-15" points="373.91 154.68 398.93 167.04 398.93 264.63 368.36 264.63 368.36 162.28 373.91 154.68"/><polygon class="cls-15" points="362.81 154.68 337.79 167.04 337.79 264.63 368.36 264.63 368.36 162.28 362.81 154.68"/><path class="cls-16" d="M368.36,162.21v48.68C384,198.1,384.79,172,384.2,159.72l-10.29-5Z"/><path class="cls-16" d="M368.36,162.21v48.68c-15.64-12.79-16.43-38.88-15.84-51.17l10.29-5Z"/><path class="cls-17" d="M374.57,157l-5.75,5.23L363.06,157s-.88,23.35,5.76,40.71C375.45,180.33,374.57,157,374.57,157Z"/><path class="cls-15" d="M372.26,162.21h-6.89l2.3,6.32L365.9,188.1a72.55,72.55,0,0,0,2.92,10,74,74,0,0,0,2.91-10L370,168.53Z"/><path class="cls-16" d="M398.93,166.93l.09,0a25.15,25.15,0,0,1,12.2,13.51l9.13,23.95,42-52.29a3,3,0,0,1,3.75-.76l.05,0a3,3,0,0,1,1,4.38l-4.58,6.41,3.94,4a9,9,0,0,1,.68,11.86l-40.75,52.47a10,10,0,0,1-16.06-.32l-11.5-16.1Z"/><polygon class="cls-15" points="449.65 200.76 460.18 187.2 444.18 174.79 435.03 186.17 449.65 200.76"/><path class="cls-18" d="M467.24,178.11a9,9,0,0,0-.68-11.86l-3.94-4,4.58-6.41a3,3,0,0,0-1-4.38l-.05,0a3,3,0,0,0-3.75.76l-20.89,26,14.73,14.16Z"/><path class="cls-15" d="M426.71,230.3A12.59,12.59,0,0,0,409.55,229l.88,1.23a10,10,0,0,0,16.06.32Z"/><path class="cls-16" d="M337.79,166.93l-.14.08a27,27,0,0,0-13.24,23.23V293.78h13.38Z"/><path class="cls-18" d="M324.41,293.78s-.14,20.31,13.38,20.31V293.78Z"/><path class="cls-15" d="M324.41,249.09a10.58,10.58,0,0,0,0-20.28Z"/><rect class="cls-16" x="374.1" y="240.75" width="19.09" height="5.47"/><path class="cls-16" d="M364.37,219.92a2.5,2.5,0,1,1-2.5-2.49A2.5,2.5,0,0,1,364.37,219.92Z"/><path class="cls-19" d="M374.57,157l-5.75,5.23,5.52,6.25C374.75,161.7,374.57,157,374.57,157Z"/><path class="cls-20" d="M363.06,157l5.76,5.23-5.53,6.25C362.88,161.7,363.06,157,363.06,157Z"/><line class="cls-21" x1="462.29" y1="162.59" x2="457.32" y2="168.46"/><path class="cls-21" d="M452.25,165.54l9,6.08a3.6,3.6,0,0,1,1.17,4.71l0,.07a3.58,3.58,0,0,1-5.23,1.2l-3.94-2.81s1.85,6.06-1.43,10.78"/><line class="cls-21" x1="466.3" y1="166.73" x2="462.62" y2="173.34"/><line class="cls-22" x1="368.36" y1="210.38" x2="368.36" y2="264.63"/><path d="M365.71,118.23h-2.6a5.12,5.12,0,0,0-5.12,5.12v11.16h7.1Z"/><path d="M362.32,123.65s1.6-7.36,7.8-7.36h5.21a4.29,4.29,0,0,1,4.29,4.29v15.68H366.24Z"/><polygon class="cls-18" points="374.57 156.98 368.85 162.21 363.02 156.98 363.02 143.84 374.57 143.84 374.57 156.98"/><path class="cls-23" d="M363,143.84v9.36c8.81,0,11.55-6.66,11.55-6.66l-8.21-2.7Z"/><circle class="cls-23" cx="377.34" cy="135.33" r="3.44"/><circle class="cls-18" cx="360.29" cy="135.33" r="3.44"/><path class="cls-18" d="M371.19,122.3h-4.75a7,7,0,0,0-7,7v7.24A15.12,15.12,0,0,0,365.78,149a4.41,4.41,0,0,0,6.07,0,15.12,15.12,0,0,0,6.32-12.49v-7.24A7,7,0,0,0,371.19,122.3Z"/><ellipse class="cls-13" cx="369.55" cy="453.25" rx="282.15" ry="8.98"/><rect class="cls-15" x="616.82" y="289.42" width="20.39" height="24.41"/><rect class="cls-16" x="631.22" y="289.42" width="5.98" height="24.41"/><path class="cls-24" d="M621.47,296.52h-6.26a5,5,0,0,0-5,5v.11a5,5,0,0,0,5,5h6.26"/><path class="cls-25" d="M630.42,284.54s-8.84-6-3.16-14.75,4.26-11.77,2.27-14.23a12.23,12.23,0,0,1,.89,15.73C627.55,275.26,627.09,280.67,630.42,284.54Z"/><rect class="cls-26" x="94.15" y="313.83" width="551.67" height="11.71"/><rect class="cls-26" x="119.45" y="325.55" width="12.44" height="129.08"/><rect class="cls-4" x="119.45" y="325.55" width="12.44" height="16.99"/><rect class="cls-26" x="609.6" y="325.55" width="12.44" height="129.08"/><rect class="cls-4" x="609.6" y="325.55" width="12.44" height="16.99"/><path class="cls-22" d="M122.58,308.79s-18.39-21,15.45-108.91"/><path class="cls-22" d="M126.34,200.45c8,9,5.38,18.34,5.38,18.34S123.27,214,122.51,202A2.19,2.19,0,0,1,126.34,200.45Z"/><path class="cls-22" d="M147.85,208.54c-11.92,1.52-16.13,10.25-16.13,10.25s9.48,2,18-6.52A2.19,2.19,0,0,0,147.85,208.54Z"/><path class="cls-22" d="M117.75,222.88c8.83,8.16,7.19,17.71,7.19,17.71s-8.88-3.87-10.84-15.73A2.19,2.19,0,0,1,117.75,222.88Z"/><path class="cls-22" d="M140,228.78c-11.72,2.71-15,11.81-15,11.81s9.64,1,17.23-8.29A2.19,2.19,0,0,0,140,228.78Z"/><path class="cls-22" d="M111.69,242.72c9.41,7.49,8.49,17.13,8.49,17.13s-9.15-3.21-12-14.89A2.19,2.19,0,0,1,111.69,242.72Z"/><path class="cls-22" d="M134.29,247c-11.49,3.56-14.11,12.89-14.11,12.89s9.68.32,16.56-9.54A2.19,2.19,0,0,0,134.29,247Z"/><path class="cls-22" d="M147.23,184.82c-1.11,12-9.69,16.48-9.69,16.48s-2.32-9.41,5.9-18.18A2.19,2.19,0,0,1,147.23,184.82Z"/><path class="cls-27" d="M113.93,293.78S81.35,262.83,90.62,257.6s15.22,9.45,14.6-9.64S90,192.63,107.44,193.12,136.33,264.63,113.93,293.78Z"/><path class="cls-22" d="M107.45,307.83s13.27-18.66-21.6-87.59"/><path class="cls-22" d="M95.43,219.74c-5.76,8-2.87,15.41-2.87,15.41s6.5-4.57,6.13-14.43A1.79,1.79,0,0,0,95.43,219.74Z"/><path class="cls-22" d="M78.55,228.12c9.85.26,14,7,14,7s-7.57,2.41-15.2-3.83A1.8,1.8,0,0,1,78.55,228.12Z"/><path class="cls-22" d="M104.29,237.34c-6.53,7.38-4.4,15-4.4,15s6.92-3.9,7.55-13.74A1.8,1.8,0,0,0,104.29,237.34Z"/><path class="cls-22" d="M86.65,244c9.78,1.24,13.24,8.4,13.24,8.4S92.11,254,85.15,247A1.8,1.8,0,0,1,86.65,244Z"/><path class="cls-22" d="M110.87,253c-7.06,6.89-5.5,14.68-5.5,14.68s7.19-3.38,8.54-13.14A1.79,1.79,0,0,0,110.87,253Z"/><path class="cls-22" d="M92.79,258.34c9.66,2,12.58,9.36,12.58,9.36s-7.88,1.06-14.3-6.42A1.8,1.8,0,0,1,92.79,258.34Z"/><path class="cls-22" d="M77.1,208.71c1.89,9.68,9.26,12.65,9.26,12.65s1.12-7.87-6.31-14.35A1.8,1.8,0,0,0,77.1,208.71Z"/><path class="cls-25" d="M105.06,313.83h18c5.08-4.59,8.56-13,8.87-22.64H96.19C96.5,300.87,100,309.24,105.06,313.83Z"/><path class="cls-28" d="M104.49,291.19h-8.3c.31,9.68,3.79,18.05,8.87,22.64h8.3C108.28,309.24,104.8,300.87,104.49,291.19Z"/><path class="cls-29" d="M107.44,193.12s16.69,62,6.6,98.34"/><path class="cls-4" d="M484.11,265.93H423a2,2,0,0,0-1.84,2.86l17.7,38.93h66.29l-18.16-40A3.15,3.15,0,0,0,484.11,265.93Z"/><path class="cls-30" d="M481.48,268H429a1.34,1.34,0,0,0-1.22,1.88l13.85,30.87a3.16,3.16,0,0,0,2.88,1.86H497a1.34,1.34,0,0,0,1.22-1.88l-13.85-30.87A3.16,3.16,0,0,0,481.48,268Z"/><rect class="cls-31" x="438.85" y="307.72" width="84.6" height="6.11"/><path class="cls-31" d="M421.07,268.63l17.78,39.09h3.74l-19.75-41.79h0A1.91,1.91,0,0,0,421.07,268.63Z"/><polygon class="cls-31" points="480.52 270.35 432.18 270.35 440.98 289.8 489.42 289.8 480.52 270.35"/><rect class="cls-4" x="448.53" y="309.41" width="9.02" height="2.53"/><line class="cls-32" x1="477.61" y1="273.89" x2="437.2" y2="273.89"/><line class="cls-32" x1="479.64" y1="277.44" x2="439.23" y2="277.44"/><line class="cls-32" x1="481.56" y1="280.99" x2="441.16" y2="280.99"/><line class="cls-32" x1="483.59" y1="284.54" x2="443.18" y2="284.54"/><path d="M528.3,323.91v9.31H499.36A26.74,26.74,0,0,0,472.62,360V440.5h35.1v-74H539.5a39.74,39.74,0,0,0,39.74-39.75v-2.87Z"/><path d="M507.72,440.5v10.95H462.45s0-10.95,7.66-10.95Z"/><path d="M556.89,440.5v10.95H512.06s0-10.95,7.58-10.95Z"/><rect x="521.79" y="350.14" width="35.1" height="90.36"/><path class="cls-18" d="M558,211.74l1,11.9H542.87l1-5.95s-5.56,1.54-8.06.19c6.14-9.22,9.41-12.1,9.41-12.1Z"/><path class="cls-18" d="M543.64,188.79s-3.45,1.52-5.57,8.2-2.3,9.56-2.3,9.56l3.94,4,4.7-5.92,2.5-12.47Z"/><path class="cls-33" d="M547.48,214.22c1.35-2.87-2.3-6.89-2.3-6.89l-2.73,1.44a107.62,107.62,0,0,0-6.68,9.11c2.5,1.35,8.06-.19,8.06-.19A6.26,6.26,0,0,0,547.48,214.22Z"/><path d="M541.53,188.79l2.88,8.83s-.58,8.95-4.42,9.71-4.22-.78-4.22-.78v11.33s5.76,2.47,7.68-3.66,1.73-6.89,1.73-6.89l2.3,6.89s5.57,2.29,10.56,0,5.19-15.5,6.15-20.23-7.68-8.24-12.48-9.07S541.34,183.52,541.53,188.79Z"/><path class="cls-18" d="M546.71,199.83l-1.53,7.5s3.53,1.91,4.83-1.55S546.71,199.83,546.71,199.83Z"/><path class="cls-34" d="M538.07,197a2.75,2.75,0,0,1,1.28,1.9"/><path d="M559.23,213.39c3.84-3.68,4.08-15.08,5-19.4,1-4.72-7.68-8.24-12.48-9.07a24.86,24.86,0,0,0-5.9-.5,17.32,17.32,0,0,0,5.51,7.77C557,197,559.85,207.79,559.23,213.39Z"/><path class="cls-25" d="M587.57,235.55l6.35,75.23A10.93,10.93,0,0,1,583,322.63H572.38Z"/><path class="cls-35" d="M538.07,227s3.37-7.59,11.94-8,12.09.31,12.09.31l2.16,6.18Z"/><polygon class="cls-28" points="564.26 225.45 587.57 235.55 579.24 332.74 528.3 332.74 518.01 235.47 538.07 226.95 564.26 225.45"/><path class="cls-25" d="M516.8,234.67l-17.19,64.17h-17a20.66,20.66,0,0,0-19.07,12.71l-1.12,2.67h45.62A11.29,11.29,0,0,0,519,305.77l14-54S534.69,232.19,516.8,234.67Z"/><path class="cls-18" d="M487.5,298.84h-4.86a20.66,20.66,0,0,0-19.07,12.71l-1.12,2.67H487.5Z"/><polygon class="cls-25" points="524.03 235.03 546.01 226.49 538.07 226.95 516.8 234.67 499.61 298.84 504.99 298.84 524.03 235.03"/><polygon class="cls-26" points="485 372.5 485 373.3 485 389.62 485 449.82 545.77 449.82 545.77 373.3 551.54 373.3 551.54 449.82 551.54 454.63 545.77 454.63 485 454.63 479.23 454.63 479.23 449.82 479.23 389.62 479.23 373.3 479.23 372.5 485 372.5"/><rect class="cls-26" x="566.06" y="373.3" width="5.77" height="81.33"/><rect class="cls-26" x="499.51" y="373.3" width="5.77" height="81.33"/><rect class="cls-26" x="499.51" y="449.82" width="72.32" height="4.81"/><rect class="cls-4" x="566.06" y="372.5" width="5.77" height="17.12"/><rect class="cls-4" x="499.51" y="372.5" width="5.77" height="17.12"/><path class="cls-36" d="M576.67,249.73h-27a18.9,18.9,0,0,0-18.88,18.57c-.52,28.51-3.5,80.42-18.28,86.58-10.37,4-33.89,1.46-33.89,21.66h88s28.92-3.64,28.92-43.32v-64.6A18.89,18.89,0,0,0,576.67,249.73Z"/><path class="cls-37" d="M537.1,255.25s.16,87-16.41,99.35-35.69,4-35.69,21.45"/><path class="cls-4" d="M246.13,265.93h61.12a2,2,0,0,1,1.84,2.86l-17.7,38.93H225.1l18.16-40A3.15,3.15,0,0,1,246.13,265.93Z"/><path class="cls-8" d="M248.76,268h52.51a1.33,1.33,0,0,1,1.22,1.88l-13.85,30.87a3.15,3.15,0,0,1-2.88,1.86H233.25a1.34,1.34,0,0,1-1.22-1.88l13.85-30.87A3.16,3.16,0,0,1,248.76,268Z"/><rect class="cls-31" x="206.8" y="307.72" width="84.6" height="6.11"/><path class="cls-31" d="M309.17,268.63l-17.78,39.09h-3.74l19.75-41.79h0A1.91,1.91,0,0,1,309.17,268.63Z"/><polygon class="cls-31" points="249.72 270.35 298.06 270.35 289.26 289.8 240.82 289.8 249.72 270.35"/><rect class="cls-4" x="272.69" y="309.41" width="9.02" height="2.53"/><line class="cls-32" x1="252.64" y1="273.89" x2="293.04" y2="273.89"/><line class="cls-32" x1="250.6" y1="277.44" x2="291.01" y2="277.44"/><line class="cls-32" x1="248.68" y1="280.99" x2="289.08" y2="280.99"/><line class="cls-32" x1="246.66" y1="284.54" x2="287.06" y2="284.54"/><path class="cls-18" d="M210.81,202.2s2,20.69,0,26.88l-8-.82v9.28H190.43V226.26s-7-9.85-7-16.12,4.9-16.29,14.14-15.62A17.1,17.1,0,0,1,210.81,202.2Z"/><path d="M210.81,202.2a17.1,17.1,0,0,0-13.26-7.68c-9.24-.67-14.14,9.35-14.14,15.62s7,16.12,7,16.12l1.19.22a9.75,9.75,0,0,0,10-4.19c1.71-2.61,3.42-5.81,3.88-8.73A25.66,25.66,0,0,1,210.81,202.2Z"/><path class="cls-38" d="M201.54,195.27a17.57,17.57,0,0,0-4-.75c-9.24-.67-14.14,9.35-14.14,15.62,0,2.55,1.16,5.69,2.54,8.52C198.24,215.24,201,202.12,201.54,195.27Z"/><path class="cls-18" d="M207.47,218.82a2.34,2.34,0,0,1-2.34,2.34h0a2.34,2.34,0,0,1-2.34-2.34v-5.44a2.34,2.34,0,0,1,2.34-2.34h0a2.34,2.34,0,0,1,2.34,2.34Z"/><path class="cls-28" d="M193.7,198.26a5.15,5.15,0,1,1-5.15-5.14A5.15,5.15,0,0,1,193.7,198.26Z"/><path d="M185.34,199.67s-8.57,4.9-6.36,27.92c-9.56-14.94-11-35.76-1.72-39.68S188.08,196.69,185.34,199.67Z"/><path class="cls-23" d="M210.81,229.08s-8-4.7-8-.82Z"/><path d="M181.21,187.21a7.85,7.85,0,0,0-4,.7c-5.17,2.18-7,9.59-6,18.3C177,202.76,179.93,192.87,181.21,187.21Z"/><path d="M232.53,363.43V440.5s6.86,4.25,6.86,10.13H205.1v-87.2S228.29,360.16,232.53,363.43Z"/><path d="M243.83,450.63c0-3.37-2.54-6.2-4.72-8a9.23,9.23,0,0,0-5.89-2.12H205.1v10.13Z"/><path d="M273,363.43V440.5s6.86,4.25,6.86,10.13H245.6v-87.2S268.79,360.16,273,363.43Z"/><path d="M285.24,450.63c0-2.79-1.79-5.22-3.67-7a11.45,11.45,0,0,0-7.89-3.14H245.6v10.13Z"/><path class="cls-39" d="M259,445.56c0-35,8.66-56.47,14-66.43v-15.7c-4.24-3.27-27.43,0-27.43,0v82.13Z"/><path class="cls-40" d="M218.49,445.56c0-35,8.67-56.47,14-66.43v-15.7c-4.24-3.27-27.43,0-27.43,0v82.13Z"/><path d="M221.59,333.22l42.62,9.63s8.82,4.58,8.82,20.58c-10.12,0-26.79,4.24-41.64,10.12s-46.54,3.27-52.74-9.47-4.08-30.86-4.08-30.86Z"/><path class="cls-18" d="M171,243.57s-6.68,1.3-8.46,13.05S159,313.8,159,313.8h18.17Z"/><path class="cls-28" d="M188.55,233.87s13.09-1.07,16.58,1.13,3.73,5,3.73,5H186.57Z"/><path class="cls-25" d="M208.86,240,226,245.42l-4.41,87.8s-28.9,10.29-47,0c-7.84-78.38-3.57-89.65-3.57-89.65L186.57,240Z"/><path class="cls-28" d="M225,264.6l-8.09-7s-1.55,40.36,5.48,58.95Z"/><path class="cls-18" d="M226,245.42s6.36,3.67,9.68,21.62,5.77,33.69,5.77,33.69l27.48,1.63s7.76,1.47,7.76,11.44H233.22a7.65,7.65,0,0,1-7.53-6.3l-8.62-48S215.21,247.3,226,245.42Z"/><polygon class="cls-26" points="252.63 372.5 252.63 373.3 252.63 389.62 252.63 449.82 191.86 449.82 191.86 373.3 186.09 373.3 186.09 449.82 186.09 454.63 191.86 454.63 252.63 454.63 258.4 454.63 258.4 449.82 258.4 389.62 258.4 373.3 258.4 372.5 252.63 372.5"/><rect class="cls-26" x="165.81" y="373.3" width="5.77" height="81.33"/><rect class="cls-26" x="232.35" y="373.3" width="5.77" height="81.33"/><rect class="cls-26" x="165.81" y="449.82" width="72.32" height="4.81"/><rect class="cls-4" x="165.81" y="372.5" width="5.77" height="17.12"/><rect class="cls-4" x="232.35" y="372.5" width="5.77" height="17.12"/><path class="cls-36" d="M161,249.73h27a18.91,18.91,0,0,1,18.89,18.57c.51,28.51,3.49,80.42,18.27,86.58,10.37,4,33.89,1.46,33.89,21.66H171s-28.93-3.64-28.93-43.32v-64.6A18.89,18.89,0,0,1,161,249.73Z"/><path class="cls-41" d="M200.49,255.16s-.15,87.09,16.43,99.45,35.71,4,35.71,21.46"/><path d="M365.48,132.72a1.09,1.09,0,0,1-.91,1.2c-.5,0-.9-.54-.9-1.2s.4-1.21.9-1.21S365.48,132.05,365.48,132.72Z"/><path d="M373.92,132.72c0,.66-.4,1.2-.9,1.2a1.09,1.09,0,0,1-.91-1.2c0-.67.41-1.21.91-1.21S373.92,132.05,373.92,132.72Z"/><path d="M362.26,130.21a3,3,0,0,1,.75-.79,1.42,1.42,0,0,1,1-.28,2.65,2.65,0,0,1,1.79.74c.35.34.88-.19.53-.53a3.43,3.43,0,0,0-2.38-1,2.08,2.08,0,0,0-1.28.38,4.11,4.11,0,0,0-1,1.06c-.27.4.38.78.65.38Z"/><path d="M371.45,129.93a3.08,3.08,0,0,1,2.26-.84,2,2,0,0,1,1.62,1.21.39.39,0,0,0,.52.14.4.4,0,0,0,.13-.52,2.7,2.7,0,0,0-2.19-1.57,3.85,3.85,0,0,0-2.87,1.05c-.37.31.16.84.53.53Z"/><path class="cls-23" d="M369.08,132.55a4.44,4.44,0,0,0,.12,2.11,10.42,10.42,0,0,0,1.09,1.92,1.21,1.21,0,0,1-.13,1.71,2.91,2.91,0,0,1-2.19.2c-.47-.07-.67.65-.2.73a4.18,4.18,0,0,0,2.5-.13,1.8,1.8,0,0,0,1.07-1.73,5.09,5.09,0,0,0-1.08-2.18,3.56,3.56,0,0,1-.46-2.43c.09-.47-.64-.68-.72-.2Z"/><path class="cls-23" d="M206.87,218a1.74,1.74,0,0,1-1.74,1.75h0a1.75,1.75,0,0,1-1.75-1.75V214a1.74,1.74,0,0,1,1.75-1.74h0a1.74,1.74,0,0,1,1.74,1.74Z"/><path class="cls-42" d="M208.41,219.79a1.9,1.9,0,1,1-1.89-1.9A1.89,1.89,0,0,1,208.41,219.79Z"/><rect class="cls-25" x="112.77" y="291.19" width="2.54" height="1.59"/><path class="cls-23" d="M367.41,142.08a2.1,2.1,0,0,0,2,1.19,2.22,2.22,0,0,0,2.07-1.49.38.38,0,0,0-.73-.2,1.47,1.47,0,0,1-1.4.95,1.38,1.38,0,0,1-1.28-.83.39.39,0,0,0-.52-.14.39.39,0,0,0-.13.52Z"/><path class="cls-9" d="M276.73,203.7V174.39a29.3,29.3,0,1,0,24.36,13Z"/><path class="cls-16" d="M364.52,236.45A2.5,2.5,0,1,1,362,234,2.5,2.5,0,0,1,364.52,236.45Z"/></g></g></svg>