<?xml version="1.0" encoding="UTF-8"?>
<svg id="Layer_1" data-name="Layer 1" xmlns="http://www.w3.org/2000/svg" viewBox="0 0 211.98 119.92">
  <defs>
    <style>
      .cls-1 {
        fill: #007ba8;
      }

      .cls-2 {
        fill: #ababab;
      }
    </style>
  </defs>
  <g>
    <g>
      <path class="cls-2" d="M91.26,69.49c-.56-.34-1.08-.69-1.57-1.04.48.37,1.01.72,1.57,1.04Z"/>
      <path class="cls-2" d="M104.56,56.47c-1.64.25-3.39.63-5.07,1.01-3.52.78-7.13,1.57-9.54,1.09-3.45,2.35-3.77,6.83,1.34,10.94,2.74,1.58,6.37,2.61,10.38,2.61,2.16,0,4.44-.3,6.74-.98,5.77-1.7,8.02-6.08,7.25-9.53-.68-3.05-3.99-6.22-11.1-5.14Z"/>
    </g>
    <path class="cls-1" d="M113.94,25.72c-19.91,2.36-44.31,30.75-22.64,43.8-14.52-12.98,17.04-18.39,27.25-21.6,18.69-5.87,11.08-24.06-4.6-22.2ZM113.08,40.88c-4.43,1.39-10.46,2.57-17.61,5.77,4.13-6.53,9.11-11.81,16.28-12.66,5.57-.66,10.64,3.96,1.33,6.88Z"/>
  </g>
  <path class="cls-1" d="M26.93,82.23v1.54h10.64v2.95h-10.64v3.12c0,.83.68,1.51,1.51,1.51h12.08v2.95h-12.08c-2.46,0-4.45-2.01-4.45-4.47v-7.61c0-2.46,1.98-4.47,4.45-4.47h12.08v2.95h-12.08c-.83,0-1.51.68-1.51,1.51"/>
  <polygon class="cls-1" points="59.44 77.79 59.44 94.33 56.48 92.06 45.85 83.86 45.85 94.33 42.89 94.33 42.89 77.83 45.85 80.1 56.48 88.3 56.48 77.76 59.44 77.79"/>
  <polygon class="cls-1" points="77.76 94.31 74.45 94.31 72.93 91.35 69.32 84.26 65.7 91.35 64.19 94.31 60.88 94.31 62.39 91.35 69.32 77.76 76.24 91.35 77.76 94.31"/>
  <path class="cls-1" d="M95.72,89.04c0,2.91-2.37,5.27-5.27,5.27h-11.28v-16.55h10.43c2.46,0,4.47,2.01,4.47,4.47s-.26,1.72-.71,2.41c1.42.95,2.37,2.55,2.37,4.4M82.13,83.74h7.49c.83,0,1.51-.68,1.51-1.51s-.68-1.51-1.51-1.51h-7.49v3.02h0ZM90.45,91.33c1.28,0,2.32-1.04,2.32-2.32s-1.04-2.32-2.32-2.32h-8.32v4.66h8.32v-.03h0Z"/>
  <path class="cls-1" d="M111.13,91.38v2.95h-8.39c-.83,0-1.61-.19-2.32-.54-1.04-.52-1.89-1.37-2.39-2.41-.35-.71-.55-1.49-.55-2.32v-11.28h2.95v11.56c.14,1.04.97,1.87,2.01,2.01l8.68.02h0Z"/>
  <path class="cls-1" d="M116.45,82.23v1.54h10.64v2.95h-10.64v3.12c0,.83.68,1.51,1.51,1.51h12.08v2.95h-12.08c-2.46,0-4.45-2.01-4.45-4.47v-7.61c0-2.46,1.98-4.47,4.45-4.47h12.08v2.95h-12.08c-.83,0-1.51.68-1.51,1.51"/>
  <polygon class="cls-2" points="148.95 77.79 148.95 94.33 146 92.06 135.36 83.86 135.36 94.33 132.41 94.33 132.41 77.83 135.36 80.1 146 88.3 146 77.76 148.95 77.79"/>
  <path class="cls-2" d="M167.27,86.03c0,4.56-3.71,8.27-8.27,8.27s-8.27-3.71-8.27-8.27,3.71-8.27,8.27-8.27,8.27,3.71,8.27,8.27M164.32,86.03c0-2.93-2.39-5.32-5.32-5.32s-5.32,2.39-5.32,5.32,2.39,5.32,5.32,5.32,5.32-2.39,5.32-5.32"/>
  <polygon class="cls-2" points="184.11 90.74 183.04 94.31 180.87 91.28 177.58 86.77 174.32 91.28 172.14 94.29 171.08 90.74 167.22 77.76 170.3 77.76 173.28 87.74 175.78 84.26 176.26 83.6 177.6 81.76 178.95 83.6 179.42 84.26 181.93 87.74 184.91 77.76 187.98 77.76 184.11 90.74"/>
</svg>