<svg
      xmlns="http://www.w3.org/2000/svg"
      width="32"
      height="32"
      viewBox="0 0 32 32"
      fill="none"
      className="inline-block"
    >
      <g clipPath="url(#clip0_127_274)">
        <path
          fillRule="evenodd"
          clipRule="evenodd"
          d="M5.93614 19.663C2.78964 19.6622 0.215576 17.0876 0.215576 13.941C0.215576 10.7939 2.79045 8.21902 5.93758 8.21902L10.8628 8.21909C10.8628 11.987 10.9905 15.9433 10.8628 19.663H5.93614ZM10.9353 21.8292C11.0341 22.7781 11.2251 23.7182 11.5236 24.6155C11.9755 25.9733 12.7038 27.3045 13.7752 28.2725C13.9814 28.4589 14.0624 28.7202 14.0084 28.9915L13.5319 31.3871C13.4806 31.6451 13.3182 31.8423 13.074 31.9407C12.8225 32.042 12.575 32.013 12.3529 31.8585C10.589 30.6308 9.30083 28.8268 8.4587 26.8682C7.7737 25.2751 7.36895 23.5611 7.20858 21.8292H10.9353ZM13.029 7.96552V19.8717C19.117 21.1968 24.1798 24.8327 29.0173 27.8476C29.6029 28.2127 30.3388 27.9828 30.9066 27.6073C31.4745 27.2318 31.7845 26.6711 31.7845 26.019V1.9794C31.7845 1.32958 31.4767 0.770522 30.912 0.39471C30.3472 0.0189599 29.6553 -0.139103 29.03 0.146647C24.6363 2.15546 19.0411 6.38565 13.029 7.96552Z"
          fill="#EF4335"
        />
      </g>
      <defs>
        <clipPath id="clip0_127_274">
          <rect width="32" height="32" fill="white" />
        </clipPath>
      </defs>
    </svg>