<svg
xmlns="http://www.w3.org/2000/svg"
width="32"
height="32"
viewBox="0 0 32 32"
fill="none"
className="inline-block"
>
<path
  d="M1.37996 21.9998C0.971339 22.7083 0.731136 23.5013 0.677926 24.3174C0.624715 25.1336 0.759922 25.951 1.07309 26.7065C1.38626 27.4621 1.869 28.1355 2.48399 28.6747C3.09898 29.2139 3.82973 29.6044 4.61975 29.816C5.40976 30.0277 6.23788 30.0548 7.04005 29.8953C7.84223 29.7358 8.59697 29.394 9.24593 28.8962C9.89488 28.3984 10.4207 27.7581 10.7826 27.0246C11.1446 26.2912 11.333 25.4843 11.3333 24.6665C11.3338 23.492 10.9465 22.3503 10.2318 21.4184C9.51698 20.4866 8.5146 19.8167 7.38017 19.5127C6.24575 19.2088 5.04273 19.2878 3.9578 19.7375C2.87287 20.1872 1.96672 20.9824 1.37996 21.9998Z"
  fill="#EF4335"
/>
<path
  d="M9.3866 8.1333L3.3866 18.5333C4.33816 18.1276 5.37108 17.9489 6.40364 18.0113C7.4362 18.0737 8.44007 18.3756 9.33583 18.893C10.2316 19.4104 10.9946 20.1291 11.5646 20.9924C12.1346 21.8556 12.4959 22.8396 12.6199 23.8666L15.2333 19.3333C10.2733 10.76 9.55326 9.93997 9.3866 8.1333Z"
  fill="#EF4335"
/>
<path
  d="M30.62 21.9999C30.28 21.4266 20.5333 4.48655 20.34 4.23989C19.5377 3.1208 18.3336 2.35541 16.9797 2.1039C15.6259 1.85239 14.2273 2.13425 13.0765 2.8905C11.9258 3.64675 11.1121 4.81878 10.8058 6.16128C10.4996 7.50379 10.7244 8.91272 11.4333 10.0932C11.3667 10.0932 11.1 9.51989 21.38 27.3332C21.7302 27.9399 22.1965 28.4717 22.7522 28.8982C23.3079 29.3247 23.9422 29.6376 24.6188 29.819C25.2954 30.0004 26.0011 30.0467 26.6957 29.9554C27.3902 29.864 28.06 29.6367 28.6667 29.2866C29.2734 28.9364 29.8052 28.4701 30.2317 27.9144C30.6582 27.3587 30.9711 26.7244 31.1525 26.0478C31.3338 25.3711 31.3802 24.6654 31.2888 23.9709C31.1975 23.2763 30.9702 22.6066 30.62 21.9999Z"
  fill="#EF4335"
/>
</svg>