<svg width="60" height="60" viewBox="0 0 60 60" fill="none" xmlns="http://www.w3.org/2000/svg">
<circle cx="29.5758" cy="29.5758" r="9.57581" fill="#D4E1F3"/>
<g clip-path="url(#clip0_462_464)">
<path d="M35.044 50.8591C33.8627 51.5996 32.4246 51.7802 31.0983 51.3546L16.7695 46.7636H7V48.1118H16.5588L30.6867 52.6385C31.2937 52.8333 31.9188 52.9293 32.5408 52.9293C33.6664 52.9293 34.7819 52.6147 35.7601 52.0015L43.4783 47.164L42.7622 46.0216L35.044 50.8591Z" fill="#093166"/>
<path d="M52.5537 40.5807C52.1086 39.9573 51.5421 39.4655 50.9076 39.1156V14.7411C50.9076 12.8825 49.3956 11.3705 47.537 11.3705H37.4568L37.2086 10.7714L35.5286 10.8573L34.6684 9.99702L34.7541 8.31702L31.7457 7.0708L30.6183 8.31945H29.4017L28.2742 7.0708L25.2658 8.31702L25.3515 9.99702L24.4912 10.8573L22.8112 10.7714L22.5631 11.3705H17.074V12.7188H22.0046L21.565 13.7801L22.8138 14.9074V16.124L21.565 17.2513L22.8112 20.2599L24.4912 20.1741L25.3515 21.0343L25.2658 22.7144L28.2742 23.9606L29.4016 22.712H30.6182L31.7456 23.9606L34.754 22.7144L34.6683 21.0343L35.5285 20.1741L37.2085 20.2599L38.4548 17.2513L37.206 16.124V14.9073L38.4548 13.78L38.0151 12.7187H47.537C48.6521 12.7187 49.5594 13.6258 49.5594 14.741V38.609C48.6933 38.4197 47.7768 38.4597 46.9078 38.7514V31.2001H37.4702V41.563C37.0112 41.2422 36.4535 41.0532 35.8523 41.0532H34.7288V35.6084H25.2911V36.9345C24.4048 36.6626 23.4754 36.5525 22.5497 36.5539V31.2H13.112V38.5745H10.4605V14.7411C10.4605 13.6259 11.3678 12.7188 12.4828 12.7188H15.7258V11.3705H12.4828C10.6242 11.3705 9.11224 12.8825 9.11224 14.7411V38.5746H7V39.9229H14.9121L15.078 39.9227L15.2247 39.846C15.2989 39.7896 23.2011 35.786 27.0826 39.4718C27.5474 39.7963 28.3112 41.1506 28.7051 42.0086L28.8855 42.4017H35.8523C36.67 42.4017 37.3354 43.067 37.3354 43.8847C37.3354 44.7025 36.67 45.3678 35.8523 45.3678H26.6843V46.716H35.8523C37.1075 46.716 38.174 45.8947 38.544 44.7614L46.7515 40.2845C48.1627 39.5149 49.8857 39.7727 51.0122 40.8515L43.9072 45.3045L44.6232 46.4469L53 41.197L52.5537 40.5807ZM36.8451 17.6144L36.3271 18.8648L34.999 18.797L33.2913 20.5046L33.3591 21.8329L32.1087 22.3508L31.2174 21.3637H28.8025L27.9113 22.3508L26.6608 21.8329L26.7287 20.5046L25.021 18.797L23.6928 18.8648L23.1749 17.6144L24.162 16.7232V14.3081L23.1749 13.4169L23.6928 12.1664L25.021 12.2343L26.7287 10.5266L26.6608 9.19841L27.9113 8.68051L28.8025 9.66769H31.2174L32.1087 8.68051L33.3591 9.19841L33.2913 10.5266L34.999 12.2343L36.3271 12.1664L36.8451 13.4169L35.858 14.3081V16.7232L36.8451 17.6144ZM14.7507 38.5746H14.4603V32.5485H21.2014V36.6294C18.1673 36.9548 15.4333 38.2348 14.7507 38.5746ZM27.8938 38.3946C27.4997 38.0383 27.079 37.7438 26.6393 37.5017V36.9567H33.3805V41.0533H29.7425C29.3824 40.3255 28.631 38.9394 27.8938 38.3946ZM45.5596 32.5484V39.3987L38.8184 43.0758V32.5484H45.5596Z" fill="#093166"/>
<path d="M30.0098 12.145C28.1512 12.145 26.6392 13.657 26.6392 15.5156C26.8243 19.9872 33.1959 19.9858 33.3804 15.5156C33.3804 13.6571 31.8683 12.145 30.0098 12.145ZM30.0098 17.538C28.8947 17.538 27.9874 16.6308 27.9874 15.5156C28.0985 12.8327 31.9215 12.8334 32.0321 15.5156C32.0321 16.6308 31.1248 17.538 30.0098 17.538Z" fill="#093166"/>
<path d="M13.1118 29.8519H22.5495V23.1107H13.1118V29.8519ZM14.4601 24.459H21.2012V28.5037H14.4601V24.459Z" fill="#093166"/>
<path d="M46.9079 23.1107H37.4702V29.8519H46.9079V23.1107ZM45.5596 28.5037H38.8185V24.459H45.5596V28.5037Z" fill="#093166"/>
<path d="M34.7287 25.1675H25.291V34.2603H34.7287V25.1675ZM33.3804 32.912H26.6393V26.5157H33.3804V32.912Z" fill="#093166"/>
<path d="M14.9097 15.743H16.2579V17.0913H14.9097V15.743Z" fill="#093166"/>
<path d="M17.606 15.743H18.9542V17.0913H17.606V15.743Z" fill="#093166"/>
<path d="M41.0654 15.743H42.4137V17.0913H41.0654V15.743Z" fill="#093166"/>
<path d="M43.7617 15.743H45.11V17.0913H43.7617V15.743Z" fill="#093166"/>
</g>
<defs>
<clipPath id="clip0_462_464">
<rect width="46" height="46" fill="white" transform="translate(7 7)"/>
</clipPath>
</defs>
</svg>
