<svg width="60" height="60" viewBox="0 0 60 60" fill="none" xmlns="http://www.w3.org/2000/svg">
<circle cx="29.5758" cy="30.5758" r="9.57581" fill="#D4E1F3"/>
<g clip-path="url(#clip0_462_405)">
<path d="M54.2188 30.2188H44.0312C43.5997 30.2188 43.2499 30.5686 43.2499 31C43.2499 38.306 37.3061 44.2499 30 44.2499C22.6939 44.2499 16.75 38.3061 16.75 31C16.75 30.5686 16.4002 30.2188 15.9688 30.2188H5.78125C5.3498 30.2188 5 30.5686 5 31V33.4203C5 33.7436 5.19902 34.0333 5.50059 34.1494L9.15898 35.5575C9.69814 38.0371 10.6662 40.3724 12.0416 42.5116L10.4493 46.0968C10.3181 46.3921 10.3823 46.7377 10.6108 46.9663L14.0337 50.3892C14.2622 50.6178 14.608 50.6817 14.9032 50.5507L18.4896 48.9577C20.6297 50.3332 22.9646 51.3012 25.442 51.84L26.8506 55.4994C26.9667 55.801 27.2564 56 27.5797 56H32.4202C32.7435 56 33.0332 55.801 33.1493 55.4994L34.5574 51.841C37.0368 51.3019 39.3721 50.3338 41.5115 48.9583L45.0966 50.5507C45.3918 50.6819 45.7376 50.6177 45.9661 50.3892L49.3889 46.9662C49.6174 46.7377 49.6816 46.3921 49.5505 46.0968L47.9576 42.5103C49.333 40.3702 50.3011 38.0354 50.8398 35.5579L54.4992 34.1493C54.8008 34.0333 54.9998 33.7435 54.9998 33.4202V31C55 30.5686 54.6502 30.2188 54.2188 30.2188ZM53.4375 32.8838L49.8808 34.2529C49.6302 34.3494 49.4466 34.568 49.3948 34.8314C48.8896 37.4042 47.8894 39.8168 46.4222 42.0023C46.2725 42.2253 46.2479 42.5095 46.3568 42.7549L47.9051 46.2408L45.2409 48.905L41.7564 47.3572C41.5108 47.2483 41.2266 47.273 41.0037 47.4227C38.8191 48.8897 36.406 49.8901 33.8313 50.3958C33.5677 50.4475 33.3492 50.6311 33.2527 50.8817L31.884 54.4375H28.1162L26.7471 50.8808C26.6506 50.6302 26.4321 50.4466 26.1686 50.3948C23.5959 49.8895 21.1833 48.8894 18.9978 47.4222C18.7747 47.2725 18.4905 47.2479 18.2452 47.3567L14.7594 48.905L12.0951 46.2408L13.6428 42.7562C13.7518 42.5106 13.7271 42.2265 13.5773 42.0035C12.1104 39.8191 11.1101 37.406 10.6043 34.8311C10.5525 34.5675 10.3689 34.3489 10.1183 34.2525L6.5625 32.8839V31.7812H15.2079C15.6157 39.5869 22.0946 45.8124 30 45.8124C37.9054 45.8124 44.3842 39.5869 44.792 31.7812H53.4375V32.8838ZM38.9903 22.392L40.3707 20.2372L38.9903 18.0824C38.166 16.7957 37.2318 16.1702 36.1343 16.1702H34.1234C33.692 16.1702 33.3422 15.8204 33.3422 15.389C33.3422 14.9575 33.692 14.6077 34.1234 14.6077H36.1343C37.7837 14.6077 39.1872 15.4932 40.3061 17.2396L41.2986 18.7889L42.2912 17.2396C43.4101 15.4932 44.8136 14.6077 46.463 14.6077H48.992L47.8245 13.4403C47.5194 13.1353 47.5193 12.6406 47.8245 12.3354C48.1296 12.0305 48.6242 12.0305 48.9293 12.3354L51.4305 14.8365C51.577 14.9831 51.6593 15.1817 51.6593 15.389C51.6593 15.5962 51.577 15.7948 51.4305 15.9414L48.9293 18.4426C48.7768 18.5951 48.5769 18.6714 48.3769 18.6714C48.1769 18.6714 47.977 18.5951 47.8244 18.4426C47.5193 18.1375 47.5192 17.6429 47.8244 17.3377L48.9919 16.1702H46.4629C45.3653 16.1702 44.4312 16.7957 43.6068 18.0824L42.2265 20.2372L43.6068 22.392C44.4312 23.6787 45.3653 24.3042 46.4629 24.3042H48.9919L47.8244 23.1367C47.5192 22.8315 47.5193 22.3369 47.8244 22.0318C48.1296 21.7269 48.6242 21.7271 48.9292 22.0318L51.4304 24.533C51.5769 24.6796 51.6592 24.8782 51.6592 25.0854C51.6592 25.2927 51.5769 25.4913 51.4304 25.6379L48.9292 28.139C48.7767 28.2915 48.5767 28.3678 48.3768 28.3678C48.1768 28.3678 47.9769 28.2915 47.8243 28.139C47.5191 27.8338 47.5192 27.3392 47.8243 27.0341L48.9918 25.8667H46.4628C44.8134 25.8667 43.4099 24.9813 42.291 23.2349L41.2984 21.6855L40.3059 23.2349C39.187 24.9813 37.7835 25.8667 36.1341 25.8667H34.1232C33.6918 25.8667 33.342 25.5169 33.342 25.0854C33.342 24.654 33.6918 24.3042 34.1232 24.3042H36.1341C37.2317 24.3043 38.166 23.6787 38.9903 22.392ZM25.3166 28.0702H29.5262C29.9576 28.0702 30.3074 27.7204 30.3074 27.289V6.78125C30.3074 6.3498 29.9576 6 29.5262 6H25.3166C24.8852 6 24.5354 6.3498 24.5354 6.78125V27.289C24.5354 27.7204 24.8852 28.0702 25.3166 28.0702ZM26.0979 7.5625H28.7449V26.5077H26.0979V7.5625ZM9.68379 28.0702H13.8933C14.3247 28.0702 14.6745 27.7204 14.6745 27.289V17.9505C14.6745 17.519 14.3247 17.1692 13.8933 17.1692H9.68379C9.25234 17.1692 8.90254 17.519 8.90254 17.9505V27.289C8.90254 27.7204 9.25234 28.0702 9.68379 28.0702ZM10.465 18.7317H13.112V26.5077H10.465V18.7317ZM17.5002 28.0703H21.7098C22.1412 28.0703 22.491 27.7205 22.491 27.2891V12.6098C22.491 12.1783 22.1412 11.8285 21.7098 11.8285H17.5002C17.0688 11.8285 16.7189 12.1783 16.7189 12.6098V27.2891C16.7189 27.7205 17.0688 28.0703 17.5002 28.0703ZM18.2814 13.391H20.9285V26.5078H18.2814V13.391Z" fill="#093166"/>
</g>
<defs>
<clipPath id="clip0_462_405">
<rect width="50" height="50" fill="white" transform="translate(5 6)"/>
</clipPath>
</defs>
</svg>
