<svg width="60" height="60" viewBox="0 0 60 60" fill="none" xmlns="http://www.w3.org/2000/svg">
<circle cx="17.5758" cy="22.5758" r="9.57581" fill="#D4E1F3"/>
<g clip-path="url(#clip0_462_444)">
<path d="M32.4907 27.3586C31.9197 27.3586 31.4551 27.8232 31.4551 28.3943V31.6617C31.4551 32.2328 31.9197 32.6973 32.4907 32.6973H35.7581C36.3292 32.6973 36.7938 32.2328 36.7938 31.6617V28.3943C36.7938 27.8232 36.3292 27.3586 35.7581 27.3586H32.4907ZM35.5047 31.4083H32.7441V28.6477H35.5047V31.4083Z" fill="#093166"/>
<path d="M41.8695 12.3031V9.03572C41.8695 8.46458 41.4048 8 40.8338 8H37.5664C36.9953 8 36.5308 8.46458 36.5308 9.03572V12.3031C36.5308 12.8743 36.9953 13.3389 37.5664 13.3389H40.8338C41.4048 13.3388 41.8695 12.8742 41.8695 12.3031ZM40.5804 12.0497H37.8198V9.28906H40.5804V12.0497Z" fill="#093166"/>
<path d="M47.7577 23.481H44.4902C43.9192 23.481 43.4546 23.9455 43.4546 24.5166V27.784C43.4546 28.3551 43.9192 28.8197 44.4902 28.8197H47.7577C48.3287 28.8197 48.7933 28.3551 48.7933 27.784V24.5165C48.7933 23.9455 48.3287 23.481 47.7577 23.481ZM47.5042 27.5306H44.7437V24.77H47.5042V27.5306Z" fill="#093166"/>
<path d="M49.6527 13.1906H43.9653C43.3943 13.1906 42.9297 13.6551 42.9297 14.2262V19.9135C42.9297 20.4847 43.3943 20.9492 43.9653 20.9492H49.6527C50.2237 20.9492 50.6883 20.4847 50.6883 19.9135V14.2262C50.6883 13.6552 50.2237 13.1906 49.6527 13.1906ZM49.3992 19.6602H44.2188V14.4796H49.3992V19.6602Z" fill="#093166"/>
<path d="M26.661 30.4998C24.3677 30.4998 22.502 32.3655 22.502 34.6588C22.502 36.9521 24.3677 38.8178 26.661 38.8178C28.9542 38.8178 30.82 36.952 30.82 34.6588C30.82 32.3655 28.9543 30.4998 26.661 30.4998ZM26.661 37.5288C25.0784 37.5288 23.791 36.2413 23.791 34.6588C23.791 33.0763 25.0784 31.7888 26.661 31.7888C28.2434 31.7888 29.531 33.0763 29.531 34.6588C29.531 36.2413 28.2434 37.5288 26.661 37.5288Z" fill="#093166"/>
<path d="M41.4106 24.4658V18.0909C41.4106 17.5198 40.946 17.0552 40.3749 17.0552H38.679C38.323 17.0552 38.0345 17.3437 38.0345 17.6997C38.0345 18.0557 38.323 18.3442 38.679 18.3442H40.1215V24.2123H34.2534V18.3442H35.6712C36.0273 18.3442 36.3157 18.0557 36.3157 17.6997C36.3157 17.3437 36.0273 17.0552 35.6712 17.0552H34.0001C33.4289 17.0552 32.9644 17.5198 32.9644 18.0909V24.4658C32.9644 25.0369 33.4289 25.5015 34.0001 25.5015H40.375C40.946 25.5014 41.4106 25.0368 41.4106 24.4658Z" fill="#093166"/>
<path d="M42.4672 30.9826H38.9554C38.3637 30.9826 37.8824 31.464 37.8824 32.0557V34.0062H35.7591C35.185 34.0062 34.7142 34.4575 34.687 35.0337C34.4841 39.3663 30.9307 42.7424 26.5462 42.6852C22.2391 42.6253 18.6863 39.0724 18.6264 34.7654C18.5639 30.2705 22.1811 26.6155 26.6608 26.6155C27.4393 26.6155 28.2092 26.7268 28.9489 26.9462C29.6386 27.1504 30.329 26.6372 30.329 25.9185V23.6847C30.329 23.3286 30.0405 23.0401 29.6845 23.0401C29.3284 23.0401 29.0399 23.3286 29.0399 23.6847V25.6332C28.2663 25.4295 27.4673 25.3265 26.6608 25.3265C21.4652 25.3265 17.2648 29.5647 17.3375 34.7834C17.4074 39.8102 21.5002 43.9042 26.5282 43.9741C31.4979 44.0493 35.6279 40.2077 35.9631 35.2953H38.0982C38.69 35.2953 39.1713 34.8139 39.1713 34.2222V32.2718H42.4672C42.6071 32.2718 42.7209 32.3856 42.7209 32.5255V36.7762C42.7209 36.9161 42.6071 37.0299 42.4672 37.0299H40.1799C39.4976 37.0299 38.8883 37.488 38.6983 38.1439C38.4426 39.0263 38.0875 39.8829 37.6426 40.69C37.3123 41.2888 37.4189 42.0442 37.9017 42.5272L39.5199 44.1454C39.6188 44.2443 39.6188 44.4053 39.5199 44.5043L36.5142 47.5098C36.4153 47.6086 36.2543 47.6088 36.1553 47.5099L34.5371 45.8915C34.0545 45.4089 33.299 45.3022 32.7001 45.6323C31.8928 46.0773 31.0362 46.4325 30.1538 46.6882C29.4979 46.8783 29.0398 47.4876 29.0398 48.1697V50.4571C29.0398 50.597 28.9261 50.7108 28.7861 50.7108H24.5354C24.3955 50.7108 24.2817 50.597 24.2817 50.4571V48.1697C24.2817 47.4876 23.8236 46.8783 23.1677 46.6881C22.2853 46.4324 21.4286 46.0772 20.6215 45.6323C20.0229 45.3023 19.2673 45.4088 18.7844 45.8915L17.1662 47.5098C17.0672 47.6086 16.9063 47.6086 16.8074 47.5098L13.8016 44.5041C13.7027 44.4053 13.7027 44.2442 13.8016 44.1453L15.4199 42.527C15.9026 42.0442 16.0092 41.2888 15.6791 40.69C15.2341 39.8827 14.8789 39.0261 14.6234 38.1438C14.4334 37.4879 13.8241 37.0297 13.1417 37.0297H10.8544C10.7145 37.0297 10.6006 36.916 10.6006 36.776V32.5254C10.6006 32.3855 10.7145 32.2716 10.8544 32.2716H13.1417C13.8241 32.2716 14.4334 31.8135 14.6234 31.1576C14.879 30.2753 15.2341 29.4186 15.6791 28.6114C16.0093 28.0125 15.9027 27.2571 15.4198 26.7743L13.8016 25.1561C13.7027 25.0573 13.7027 24.8962 13.8015 24.7973L16.8074 21.7915C16.872 21.7269 16.9475 21.7173 16.9867 21.7173C17.0259 21.7173 17.1015 21.7269 17.1662 21.7916L18.7844 23.4098C19.2671 23.8925 20.0226 23.999 20.6215 23.6691C21.4285 23.2241 22.2852 22.8689 23.1678 22.6132C23.8236 22.4231 24.2817 21.8138 24.2817 21.1316V18.8443C24.2817 18.7044 24.3955 18.5906 24.5354 18.5906H28.7861C28.9261 18.5906 29.0398 18.7044 29.0398 18.8443V20.6767C29.0398 21.0328 29.3283 21.3213 29.6844 21.3213C30.0404 21.3213 30.3289 21.0328 30.3289 20.6767V18.8443C30.3289 17.9937 29.6368 17.3015 28.7861 17.3015H24.5354C23.6848 17.3015 22.9926 17.9937 22.9926 18.8443V21.1316C22.9926 21.2437 22.9171 21.3438 22.809 21.3751C21.835 21.6573 20.8895 22.0493 19.9992 22.5402C19.8982 22.5957 19.7764 22.5789 19.6959 22.4984L18.0777 20.8802C17.7862 20.5887 17.3989 20.4283 16.9868 20.4283C16.5747 20.4283 16.1873 20.5887 15.8959 20.8802L12.8902 23.8858C12.2887 24.4874 12.2887 25.4662 12.8902 26.0678L14.5085 27.686C14.5891 27.7666 14.6058 27.8883 14.5502 27.9892C14.0594 28.8798 13.6674 29.8251 13.3852 30.799C13.3539 30.9072 13.2538 30.9826 13.1417 30.9826H10.8544C10.0037 30.9826 9.31152 31.6748 9.31152 32.5255V36.7761C9.31152 37.6267 10.0037 38.3189 10.8544 38.3189H13.1417C13.2538 38.3189 13.3539 38.3944 13.3852 38.5025C13.6673 39.4764 14.0594 40.4217 14.5502 41.3124C14.6057 41.4132 14.589 41.535 14.5085 41.6155L12.8902 43.2338C12.2887 43.8354 12.2887 44.8142 12.8902 45.4158L15.8959 48.4214C16.4974 49.0228 17.4762 49.0228 18.0778 48.4214L19.6961 46.8031C19.7766 46.7225 19.8983 46.7058 19.9993 46.7614C20.8898 47.2523 21.8351 47.6441 22.809 47.9264C22.9172 47.9577 22.9927 48.0578 22.9927 48.1699V50.4572C22.9927 51.3079 23.6849 52.0001 24.5355 52.0001H28.7862C29.6368 52.0001 30.329 51.3079 30.329 50.4572V48.1699C30.329 48.0578 30.4045 47.9577 30.5126 47.9264C31.4865 47.6443 32.4318 47.2523 33.3225 46.7614C33.4233 46.7057 33.5452 46.7227 33.6256 46.8031L35.2439 48.4214C35.8455 49.0228 36.8243 49.0228 37.4258 48.4214L40.4315 45.4157C41.0329 44.814 41.0329 43.8353 40.4315 43.2337L38.8132 41.6156C38.7326 41.535 38.7158 41.4132 38.7715 41.3123C39.2624 40.4217 39.6543 39.4764 39.9365 38.5025C39.9678 38.3944 40.0679 38.3189 40.18 38.3189H42.4672C43.318 38.3189 44.0101 37.6267 44.0101 36.7761V32.5255C44.01 31.6747 43.3179 30.9826 42.4672 30.9826Z" fill="#093166"/>
</g>
<defs>
<clipPath id="clip0_462_444">
<rect width="44" height="44" fill="white" transform="translate(8 8)"/>
</clipPath>
</defs>
</svg>
