<?xml version="1.0" encoding="UTF-8"?><svg xmlns="http://www.w3.org/2000/svg" viewBox="0 0 288 288" version="1.2" baseProfile="tiny-ps"><title>Company Name</title><defs></defs><g><path class="cls-2" d="M92.15,215.76c-1.94-1.17-3.75-2.38-5.47-3.62,1.68,1.28,3.51,2.49,5.47,3.62Z"/><path class="cls-2" d="M138.39,170.5c-5.72.87-11.78,2.21-17.64,3.5-12.23,2.69-24.8,5.45-33.17,3.79-12,8.16-13.11,23.75,4.66,38.03,9.54,5.48,22.15,9.07,36.09,9.07,7.52,0,15.43-1.04,23.45-3.4,20.06-5.89,27.87-21.13,25.2-33.13-2.35-10.59-13.88-21.62-38.59-17.86Z"/></g><path class="cls-1" d="M171,63.57c-69.21,8.21-154.04,106.92-78.72,152.27-50.49-45.13,59.24-63.95,94.72-75.09,64.97-20.41,38.51-83.64-16-77.18ZM167.99,116.28c-15.39,4.84-36.36,8.95-61.22,20.06,14.35-22.71,31.67-41.05,56.59-44,19.37-2.3,36.99,13.77,4.64,23.93Z"/></svg>
