<svg width="60" height="60" viewBox="0 0 60 60" fill="none" xmlns="http://www.w3.org/2000/svg">
<circle cx="29.5758" cy="21.5758" r="9.57581" fill="#D4E1F3"/>
<g clip-path="url(#clip0_462_343)">
<path d="M40.8416 29.6658C40.575 29.2293 40.2201 28.8532 39.7996 28.5619C39.3791 28.2705 38.9024 28.0703 38.4 27.9739V15.9997C38.3989 15.0718 38.0298 14.1822 37.3736 13.5261C36.7175 12.87 35.8279 12.5009 34.9 12.4997H29.1054C28.9835 12.2876 28.808 12.1113 28.5964 11.9884C28.3848 11.8655 28.1447 11.8005 27.9 11.7997H26.9613C26.6724 10.9798 26.1362 10.2698 25.4267 9.7675C24.7172 9.26522 23.8693 8.99548 23 8.99548C22.1307 8.99548 21.2828 9.26522 20.5733 9.7675C19.8638 10.2698 19.3276 10.9798 19.0387 11.7997H18.1C17.8553 11.8005 17.6152 11.8655 17.4036 11.9884C17.192 12.1113 17.0165 12.2876 16.8946 12.4997H12.5C11.5721 12.5009 10.6825 12.87 10.0264 13.5261C9.37022 14.1822 9.00111 15.0718 9 15.9997L9 45.3997C9.00111 46.3277 9.37022 47.2173 10.0264 47.8734C10.6825 48.5295 11.5721 48.8986 12.5 48.8997H24.7913C24.8235 48.9655 24.8494 49.0334 24.8858 49.0978C25.2016 49.6763 25.668 50.1585 26.2357 50.4933C26.8033 50.8282 27.451 51.0032 28.11 50.9997H47.297C47.9554 51.0022 48.6022 50.8268 49.169 50.4918C49.7358 50.1569 50.2016 49.675 50.517 49.0971C50.8502 48.5106 51.0186 47.8449 51.0044 47.1705C50.9903 46.4961 50.794 45.8381 50.4365 45.266L40.8416 29.6658ZM37 15.9997V27.9739C36.4969 28.0696 36.0198 28.2707 35.6 28.564V16.6997C35.6 16.3284 35.4525 15.9723 35.19 15.7098C34.9274 15.4472 34.5713 15.2997 34.2 15.2997H29.3V13.8997H34.9C35.457 13.8997 35.9911 14.121 36.3849 14.5148C36.7788 14.9086 37 15.4428 37 15.9997ZM18.1 13.1997H19.57C19.7315 13.1999 19.8881 13.1443 20.0132 13.0422C20.1384 12.9402 20.2244 12.798 20.2567 12.6397C20.3859 12.0075 20.7295 11.4393 21.2294 11.0313C21.7293 10.6232 22.3547 10.4004 23 10.4004C23.6453 10.4004 24.2708 10.6232 24.7706 11.0313C25.2705 11.4393 25.6141 12.0075 25.7433 12.6397C25.7756 12.798 25.8616 12.9402 25.9868 13.0422C26.1119 13.1443 26.2685 13.1999 26.43 13.1997H27.9V15.9997H18.1V13.1997ZM27.9 17.3997C28.1447 17.399 28.3848 17.3339 28.5964 17.2111C28.808 17.0882 28.9835 16.9119 29.1054 16.6997H34.2V30.2496L25.31 44.6997H13.2V16.6997H16.8946C17.0165 16.9119 17.192 17.0882 17.4036 17.2111C17.6152 17.3339 17.8553 17.399 18.1 17.3997H27.9ZM12.5 47.4997C11.943 47.4997 11.4089 47.2785 11.0151 46.8847C10.6212 46.4908 10.4 45.9567 10.4 45.3997V15.9997C10.4 15.4428 10.6212 14.9086 11.0151 14.5148C11.4089 14.121 11.943 13.8997 12.5 13.8997H16.7V15.2997H13.2C12.8287 15.2997 12.4726 15.4472 12.2101 15.7098C11.9475 15.9723 11.8 16.3284 11.8 16.6997V44.6997C11.8 45.071 11.9475 45.4271 12.2101 45.6897C12.4726 45.9522 12.8287 46.0997 13.2 46.0997H24.5841C24.4379 46.5511 24.3797 47.0264 24.4126 47.4997H12.5ZM49.2927 48.4146C49.0972 48.774 48.8082 49.0738 48.4563 49.2824C48.1043 49.491 47.7026 49.6007 47.2935 49.5997H28.11C27.7011 49.6008 27.2995 49.4912 26.9477 49.2827C26.5959 49.0743 26.3069 48.7746 26.1115 48.4153C25.901 48.0454 25.7945 47.6255 25.8033 47.1999C25.812 46.7744 25.9357 46.3592 26.1612 45.9982L35.7512 30.4001C35.954 30.0645 36.24 29.787 36.5816 29.5943C36.9231 29.4016 37.3086 29.3004 37.7007 29.3004C38.0928 29.3004 38.4783 29.4016 38.8199 29.5943C39.1614 29.787 39.4474 30.0645 39.6502 30.4001L49.2402 45.9996C49.4659 46.3601 49.5899 46.7748 49.5991 47.1999C49.6084 47.625 49.5025 48.0448 49.2927 48.4146Z" fill="#093166"/>
<path d="M37.7001 32.1C37.1431 32.1 36.609 32.3212 36.2152 32.7151C35.8213 33.1089 35.6001 33.643 35.6001 34.2V40.5C35.6001 41.0569 35.8213 41.5911 36.2152 41.9849C36.609 42.3787 37.1431 42.6 37.7001 42.6C38.2571 42.6 38.7912 42.3787 39.185 41.9849C39.5788 41.5911 39.8001 41.0569 39.8001 40.5V34.2C39.8001 33.643 39.5788 33.1089 39.185 32.7151C38.7912 32.3212 38.2571 32.1 37.7001 32.1ZM38.4001 40.5C38.4001 40.6856 38.3263 40.8637 38.1951 40.995C38.0638 41.1262 37.8857 41.2 37.7001 41.2C37.5144 41.2 37.3364 41.1262 37.2051 40.995C37.0738 40.8637 37.0001 40.6856 37.0001 40.5V34.2C37.0001 34.0143 37.0738 33.8363 37.2051 33.705C37.3364 33.5737 37.5144 33.5 37.7001 33.5C37.8857 33.5 38.0638 33.5737 38.1951 33.705C38.3263 33.8363 38.4001 34.0143 38.4001 34.2V40.5Z" fill="#093166"/>
<path d="M37.7001 44C37.2848 44 36.8787 44.1232 36.5334 44.3539C36.1881 44.5847 35.9189 44.9126 35.76 45.2964C35.601 45.6801 35.5594 46.1023 35.6404 46.5097C35.7215 46.917 35.9215 47.2912 36.2152 47.5849C36.5089 47.8786 36.883 48.0786 37.2904 48.1596C37.6978 48.2407 38.12 48.1991 38.5037 48.0401C38.8875 47.8812 39.2154 47.612 39.4462 47.2667C39.6769 46.9214 39.8001 46.5153 39.8001 46.1C39.8001 45.543 39.5788 45.0089 39.185 44.6151C38.7912 44.2213 38.2571 44 37.7001 44ZM37.7001 46.8C37.5617 46.8 37.4263 46.7589 37.3112 46.682C37.1961 46.6051 37.1064 46.4958 37.0534 46.3679C37.0004 46.24 36.9865 46.0992 37.0135 45.9634C37.0406 45.8276 37.1072 45.7029 37.2051 45.605C37.303 45.5071 37.4277 45.4405 37.5635 45.4135C37.6993 45.3864 37.8401 45.4003 37.968 45.4533C38.0959 45.5063 38.2052 45.596 38.2821 45.7111C38.359 45.8262 38.4001 45.9616 38.4001 46.1C38.4001 46.2857 38.3263 46.4637 38.1951 46.595C38.0638 46.7263 37.8858 46.8 37.7001 46.8Z" fill="#093166"/>
<path d="M22.9998 22.3H32.0998C32.2855 22.3 32.4635 22.2263 32.5948 22.095C32.7261 21.9637 32.7998 21.7857 32.7998 21.6C32.7998 21.4144 32.7261 21.2363 32.5948 21.105C32.4635 20.9738 32.2855 20.9 32.0998 20.9H22.9998C22.8142 20.9 22.6361 20.9738 22.5048 21.105C22.3736 21.2363 22.2998 21.4144 22.2998 21.6C22.2998 21.7857 22.3736 21.9637 22.5048 22.095C22.6361 22.2263 22.8142 22.3 22.9998 22.3Z" fill="#093166"/>
<path d="M22.9998 25.1H27.1998C27.3855 25.1 27.5635 25.0262 27.6948 24.8949C27.8261 24.7637 27.8998 24.5856 27.8998 24.4C27.8998 24.2143 27.8261 24.0363 27.6948 23.905C27.5635 23.7737 27.3855 23.7 27.1998 23.7H22.9998C22.8142 23.7 22.6361 23.7737 22.5048 23.905C22.3736 24.0363 22.2998 24.2143 22.2998 24.4C22.2998 24.5856 22.3736 24.7637 22.5048 24.8949C22.6361 25.0262 22.8142 25.1 22.9998 25.1Z" fill="#093166"/>
<path d="M22.9998 30H32.0998C32.2855 30 32.4635 29.9262 32.5948 29.795C32.7261 29.6637 32.7998 29.4856 32.7998 29.3C32.7998 29.1143 32.7261 28.9363 32.5948 28.805C32.4635 28.6737 32.2855 28.6 32.0998 28.6H22.9998C22.8142 28.6 22.6361 28.6737 22.5048 28.805C22.3736 28.9363 22.2998 29.1143 22.2998 29.3C22.2998 29.4856 22.3736 29.6637 22.5048 29.795C22.6361 29.9262 22.8142 30 22.9998 30Z" fill="#093166"/>
<path d="M22.9998 32.8H27.1998C27.3855 32.8 27.5635 32.7263 27.6948 32.595C27.8261 32.4637 27.8998 32.2857 27.8998 32.1C27.8998 31.9144 27.8261 31.7363 27.6948 31.605C27.5635 31.4738 27.3855 31.4 27.1998 31.4H22.9998C22.8142 31.4 22.6361 31.4738 22.5048 31.605C22.3736 31.7363 22.2998 31.9144 22.2998 32.1C22.2998 32.2857 22.3736 32.4637 22.5048 32.595C22.6361 32.7263 22.8142 32.8 22.9998 32.8Z" fill="#093166"/>
<path d="M22.9998 37.7H27.8998C28.0855 37.7 28.2635 37.6263 28.3948 37.495C28.5261 37.3637 28.5998 37.1857 28.5998 37C28.5998 36.8144 28.5261 36.6363 28.3948 36.5051C28.2635 36.3738 28.0855 36.3 27.8998 36.3H22.9998C22.8142 36.3 22.6361 36.3738 22.5048 36.5051C22.3736 36.6363 22.2998 36.8144 22.2998 37C22.2998 37.1857 22.3736 37.3637 22.5048 37.495C22.6361 37.6263 22.8142 37.7 22.9998 37.7Z" fill="#093166"/>
<path d="M22.9998 40.5H25.7998C25.9855 40.5 26.1635 40.4262 26.2948 40.295C26.4261 40.1637 26.4998 39.9856 26.4998 39.8C26.4998 39.6143 26.4261 39.4363 26.2948 39.305C26.1635 39.1737 25.9855 39.1 25.7998 39.1H22.9998C22.8142 39.1 22.6361 39.1737 22.5048 39.305C22.3736 39.4363 22.2998 39.6143 22.2998 39.8C22.2998 39.9856 22.3736 40.1637 22.5048 40.295C22.6361 40.4262 22.8142 40.5 22.9998 40.5Z" fill="#093166"/>
<path d="M15.5052 23.9051C15.374 24.0364 15.3003 24.2144 15.3003 24.4C15.3003 24.5857 15.374 24.7637 15.5052 24.8949L16.9052 26.2949C17.0365 26.4262 17.2145 26.5 17.4001 26.5C17.4377 26.5002 17.4751 26.4971 17.5121 26.4909C17.6217 26.4732 17.7255 26.4297 17.815 26.364C17.9045 26.2983 17.977 26.2122 18.0266 26.1129L20.8266 20.5129C20.8677 20.4307 20.8922 20.3411 20.8987 20.2494C20.9052 20.1576 20.8935 20.0655 20.8644 19.9783C20.8353 19.8911 20.7893 19.8104 20.729 19.741C20.6687 19.6715 20.5953 19.6146 20.513 19.5735C20.4308 19.5325 20.3412 19.508 20.2495 19.5015C20.1577 19.495 20.0656 19.5067 19.9784 19.5358C19.8912 19.5649 19.8105 19.6109 19.7411 19.6712C19.6716 19.7315 19.6147 19.8049 19.5736 19.8871L17.2083 24.6184L16.495 23.9051C16.3638 23.7739 16.1858 23.7002 16.0001 23.7002C15.8145 23.7002 15.6365 23.7739 15.5052 23.9051Z" fill="#093166"/>
<path d="M20.5129 27.2735C20.4306 27.2323 20.3411 27.2078 20.2493 27.2013C20.1576 27.1948 20.0654 27.2065 19.9782 27.2356C19.891 27.2647 19.8103 27.3108 19.7409 27.3711C19.6714 27.4314 19.6146 27.5048 19.5735 27.5871L17.2082 32.3184L16.4949 31.6051C16.3629 31.4776 16.186 31.407 16.0025 31.4086C15.819 31.4102 15.6434 31.4838 15.5136 31.6136C15.3838 31.7434 15.3102 31.919 15.3086 32.1025C15.307 32.286 15.3776 32.4629 15.5051 32.5949L16.9051 33.9949C17.0363 34.1262 17.2144 34.1999 17.4 34.2C17.4375 34.2001 17.475 34.197 17.512 34.1909C17.6216 34.1732 17.7254 34.1297 17.8148 34.0639C17.9043 33.9982 17.9768 33.9122 18.0265 33.8129L20.8265 28.2129C20.8676 28.1306 20.8921 28.041 20.8986 27.9493C20.9051 27.8576 20.8935 27.7654 20.8644 27.6782C20.8352 27.5909 20.7892 27.5103 20.7289 27.4409C20.6686 27.3714 20.5952 27.3145 20.5129 27.2735Z" fill="#093166"/>
<path d="M20.5129 34.97C20.4306 34.9289 20.3411 34.9044 20.2493 34.8979C20.1576 34.8914 20.0654 34.903 19.9782 34.9321C19.891 34.9613 19.8103 35.0073 19.7409 35.0676C19.6714 35.1279 19.6146 35.2013 19.5735 35.2836L17.2082 40.0149L16.4949 39.3016C16.3629 39.1741 16.186 39.1035 16.0025 39.1051C15.819 39.1067 15.6434 39.1804 15.5136 39.3101C15.3838 39.4399 15.3102 39.6155 15.3086 39.799C15.307 39.9826 15.3776 40.1594 15.5051 40.2914L16.9051 41.6914C16.9698 41.757 17.0468 41.8093 17.1317 41.8451C17.2167 41.8809 17.3078 41.8995 17.4 41.9C17.4375 41.9001 17.475 41.8971 17.512 41.8909C17.6216 41.8732 17.7254 41.8297 17.8148 41.764C17.9043 41.6983 17.9768 41.6122 18.0265 41.5129L20.8265 35.9129C20.8682 35.8305 20.8931 35.7406 20.8999 35.6485C20.9067 35.5564 20.8952 35.4638 20.866 35.3762C20.8369 35.2885 20.7907 35.2075 20.73 35.1378C20.6694 35.0681 20.5956 35.0111 20.5129 34.97Z" fill="#093166"/>
</g>
<defs>
<clipPath id="clip0_462_343">
<rect width="42" height="42" fill="white" transform="translate(9 9)"/>
</clipPath>
</defs>
</svg>
