<svg width="60" height="60" viewBox="0 0 60 60" fill="none" xmlns="http://www.w3.org/2000/svg">
<circle cx="29.5758" cy="31.5758" r="9.57581" fill="#D4E1F3"/>
<path d="M44.192 37.8638H15.8083C15.1501 37.8638 14.6148 38.3991 14.6148 39.0572V39.8757C14.6148 40.531 15.017 41.0888 15.6461 41.2979L17.5211 41.9063C17.8154 43.0229 18.2598 44.0972 18.8476 45.1097L17.9542 46.8647C17.6608 47.4413 17.7695 48.1379 18.2279 48.601L20.0101 50.3804C20.4676 50.8435 21.1661 50.955 21.7464 50.6597L23.5042 49.7644C24.5064 50.3503 25.5817 50.7966 26.7086 51.0947L27.3151 52.966C27.5158 53.5838 28.0867 53.9991 28.7345 53.9991H31.2592C31.9089 53.9991 32.4808 53.5838 32.6814 52.965L33.2879 51.0947C33.2879 51.0938 33.2879 51.0938 33.2889 51.0928C34.4148 50.7966 35.4948 50.3485 36.4914 49.7635H36.4923L38.252 50.6588C38.8333 50.955 39.5308 50.8425 39.9854 50.3832L41.7751 48.5963C42.2298 48.136 42.3386 47.4394 42.0451 46.8629L41.1517 45.1069C41.7367 44.1029 42.182 43.0275 42.4792 41.9025L44.3551 41.2941C44.9804 41.0869 45.3845 40.5291 45.3845 39.8728V39.0544C45.3854 38.3991 44.8501 37.8638 44.192 37.8638ZM36.8317 39.3619C36.4567 42.7997 33.5354 45.4847 29.9983 45.4847C26.462 45.4847 23.5426 42.7997 23.1676 39.3619H36.8317ZM43.8864 39.8728L42.0142 40.4804C41.5211 40.6397 41.1629 41.0185 41.0308 41.521C40.7701 42.511 40.3754 43.4654 39.8579 44.3532C39.5926 44.8041 39.5776 45.3272 39.8148 45.7857L40.7101 47.5444L38.9289 49.3228L37.1758 48.4304C36.7154 48.195 36.1942 48.2082 35.7404 48.4697C34.8554 48.9891 33.9029 49.3847 32.9083 49.6453C32.9083 49.6453 32.9083 49.6453 32.9073 49.6453C32.4104 49.7757 32.0326 50.1319 31.8667 50.6278L31.2583 52.501H28.7411L28.1317 50.6222C27.9686 50.1329 27.5889 49.7766 27.0901 49.6453C26.0973 49.3847 25.1439 48.9882 24.2551 48.4688C23.8117 48.21 23.2764 48.1969 22.8254 48.4294L21.0704 49.3228L19.2901 47.5444L20.1864 45.7847C20.4208 45.3216 20.4048 44.8004 20.1442 44.3569C19.6258 43.4663 19.2301 42.5119 18.9695 41.5219C18.8373 41.0185 18.4764 40.6388 17.9842 40.4813L16.1129 39.8738V39.3629H21.6611C22.0417 43.6285 25.6351 46.9847 29.9983 46.9847C34.3633 46.9847 37.9576 43.6294 38.3383 39.3629H43.8864V39.8728ZM34.5029 11.6925L36.4717 8.28285C36.6789 7.92473 37.1373 7.80191 37.4954 8.0091C37.8536 8.21629 37.9764 8.67473 37.7692 9.03285L35.8004 12.4425C35.6617 12.6825 35.4095 12.8175 35.1508 12.8175C35.0233 12.8175 34.8948 12.7847 34.7767 12.7172C34.4186 12.5091 34.2958 12.0507 34.5029 11.6925ZM15.0104 20.9916C15.0104 20.5772 15.3461 20.2425 15.7595 20.2425H19.6979C20.1114 20.2425 20.447 20.5782 20.447 20.9916C20.447 21.405 20.1114 21.7407 19.6979 21.7407H15.7595C15.3461 21.7407 15.0104 21.405 15.0104 20.9916ZM22.2301 9.03285C22.0229 8.67473 22.1458 8.21629 22.5039 8.0091C22.862 7.80191 23.3204 7.92473 23.5276 8.28285L25.4964 11.6925C25.7036 12.0507 25.5808 12.5091 25.2226 12.7163C25.1045 12.7847 24.9761 12.8166 24.8486 12.8166C24.5898 12.8166 24.3376 12.6825 24.1989 12.4416L22.2301 9.03285ZM38.2736 16.2132C38.0664 15.855 38.1892 15.3966 38.5473 15.1894L41.957 13.2207C42.3151 13.0135 42.7736 13.1363 42.9808 13.4944C43.1879 13.8525 43.0651 14.311 42.707 14.5182L39.2973 16.4869C39.1792 16.5554 39.0508 16.5872 38.9233 16.5872C38.6645 16.5882 38.4123 16.4532 38.2736 16.2132ZM40.3023 20.2416H44.2408C44.6551 20.2416 44.9898 20.5772 44.9898 20.9907C44.9898 21.4041 44.6542 21.7397 44.2408 21.7397H40.3023C39.8889 21.7397 39.5533 21.4041 39.5533 20.9907C39.5533 20.5772 39.8879 20.2416 40.3023 20.2416ZM29.2492 10.6885V6.75004C29.2492 6.3366 29.5848 6.00098 29.9983 6.00098C30.4117 6.00098 30.7473 6.3366 30.7473 6.75004V10.6885C30.7473 11.1019 30.4117 11.4375 29.9983 11.4375C29.5848 11.4375 29.2492 11.1019 29.2492 10.6885ZM16.0501 35.6785L17.9336 34.305L19.8133 35.6757C20.2483 35.9963 20.8351 35.9982 21.2673 35.6832C21.7079 35.37 21.8908 34.8122 21.7229 34.2947L20.9973 32.0766L22.8808 30.7135C23.3214 30.3994 23.5042 29.8425 23.3364 29.3269C23.1704 28.815 22.697 28.471 22.157 28.471L19.8264 28.4757L19.112 26.2566C19.112 26.2557 19.112 26.2557 19.1111 26.2547C18.9451 25.7429 18.4717 25.3988 17.9336 25.3988C17.3954 25.3988 16.922 25.7429 16.7551 26.2557L16.0408 28.4747L13.7083 28.47C13.1701 28.47 12.6967 28.8141 12.5308 29.326C12.3629 29.8416 12.5467 30.3994 12.9817 30.7088L14.8698 32.0757L14.1433 34.2947C13.9764 34.8085 14.1573 35.3635 14.5942 35.6775C14.8126 35.8369 15.0676 35.9166 15.3217 35.9166C15.5786 35.9194 15.8336 35.8388 16.0501 35.6785ZM14.5183 29.9719L16.5854 29.9757H16.5864C16.9117 29.9757 17.1995 29.7657 17.2998 29.4563L17.9336 27.4875L18.5673 29.4563C18.6667 29.7657 18.9554 29.9757 19.2808 29.9757H19.2817L21.3489 29.9719L19.6754 31.1841C19.412 31.3754 19.3014 31.7147 19.4026 32.0241L20.0458 33.991L18.3742 32.7722C18.1108 32.58 17.7545 32.58 17.4911 32.7722L15.8195 33.991L16.4626 32.0241C16.5639 31.7147 16.4533 31.3754 16.1898 31.1841L14.5183 29.9719ZM24.9779 27.375C25.3464 27.8063 25.6023 28.2657 25.7514 28.7654C24.9189 29.055 24.3198 29.8463 24.3198 30.7763C24.3198 31.7644 24.9967 32.5979 25.9117 32.836V33.6619C25.9117 34.906 26.9242 35.9185 28.1683 35.9185H31.8329C33.077 35.9185 34.0895 34.906 34.0895 33.6619V32.836C35.0045 32.5979 35.6814 31.7644 35.6814 30.7763C35.6814 29.8463 35.0814 29.0541 34.2489 28.7654C34.3989 28.2657 34.6558 27.8063 35.0233 27.375C35.2154 27.15 35.4104 26.9316 35.5998 26.7207C36.8776 25.2929 38.0842 23.9447 38.0842 20.9916C38.0842 16.5338 34.4579 12.9075 30.0001 12.9075C25.5442 12.9075 21.9189 16.5338 21.9189 20.9916C21.9189 23.9447 23.1254 25.2938 24.4033 26.7207C24.5908 26.9316 24.7858 27.15 24.9779 27.375ZM32.5895 33.6619C32.5895 34.0791 32.2501 34.4194 31.832 34.4194H28.1673C27.7501 34.4194 27.4098 34.08 27.4098 33.6619V32.9044H32.5895V33.6619ZM33.5523 31.4063H26.4489C26.102 31.4063 25.8189 31.1241 25.8189 30.7763C25.8189 30.4294 26.1011 30.1463 26.4489 30.1463H26.6279H26.6354H33.3629H33.3639H33.3648H33.5514C33.8926 30.1463 34.1814 30.435 34.1814 30.7763C34.1814 31.1175 33.8936 31.4063 33.5523 31.4063ZM29.9992 14.4057C33.6301 14.4057 36.5842 17.3597 36.5842 20.9907C36.5842 23.3719 35.657 24.4079 34.4823 25.7204C34.2873 25.9379 34.0867 26.1629 33.8833 26.401C33.3086 27.0741 32.9233 27.8279 32.7311 28.6472H30.7483V24.2438L32.6233 22.3688C32.9158 22.0763 32.9158 21.6019 32.6233 21.3094C32.3308 21.0169 31.8564 21.0169 31.5639 21.3094L30.0001 22.8732L28.4383 21.3094C28.1458 21.0169 27.6714 21.016 27.3779 21.3085C27.0854 21.601 27.0845 22.0754 27.377 22.3688L29.2492 24.2438V28.6482H27.2683C27.0779 27.8297 26.6926 27.076 26.1179 26.4019C25.9145 26.1638 25.7139 25.9388 25.5189 25.7213C24.3442 24.4088 23.417 23.3719 23.417 20.9916C23.4161 17.3597 26.3692 14.4057 29.9992 14.4057ZM17.0167 13.4944C17.2239 13.1363 17.6823 13.0135 18.0404 13.2197L21.4529 15.1885C21.8111 15.3957 21.9339 15.8541 21.7276 16.2122C21.5889 16.4522 21.3367 16.5872 21.0779 16.5872C20.9504 16.5872 20.822 16.5544 20.7039 16.4869L17.2914 14.5182C16.9323 14.311 16.8095 13.8535 17.0167 13.4944ZM47.4695 29.3269C47.3036 28.815 46.8301 28.4719 46.2901 28.4719L43.9586 28.4766L43.2423 26.2594C43.0801 25.7447 42.6076 25.3997 42.0658 25.3997C41.5276 25.3997 41.0542 25.7438 40.8873 26.2566L40.1701 28.4766L37.8376 28.4719C37.2995 28.4719 36.8261 28.816 36.6601 29.3269C36.4942 29.8388 36.6751 30.3947 37.112 30.7107L39.002 32.0775L38.2764 34.2966C38.1095 34.8103 38.2904 35.3653 38.7273 35.6794C39.1614 35.9963 39.7454 35.9963 40.1823 35.6785L42.0658 34.305L43.9454 35.6757C44.1639 35.8369 44.4208 35.9175 44.6776 35.9175C44.9317 35.9175 45.1867 35.8388 45.4042 35.6804C45.8448 35.3616 46.0239 34.8029 45.8533 34.2957L45.1295 32.0775L47.0129 30.7135C47.4536 30.4003 47.6373 29.8435 47.4695 29.3269ZM43.8086 31.1841C43.5451 31.3754 43.4345 31.7138 43.5358 32.0232L44.177 33.9891L42.5083 32.7722C42.2448 32.58 41.8886 32.58 41.6251 32.7722L39.9536 33.991L40.5967 32.0241C40.6979 31.7147 40.5873 31.3744 40.3239 31.1841L38.6486 29.9729L40.7148 29.9766H40.7158C41.0411 29.9766 41.3289 29.7666 41.4292 29.4572L42.0648 27.4894L42.7004 29.4572C42.8008 29.7666 43.0886 29.9766 43.4139 29.9766H43.4148L45.482 29.9729L43.8086 31.1841Z" fill="#093166"/>
</svg>
