<?xml version="1.0" encoding="UTF-8" standalone="yes"?>
<svg width="288" height="288" viewBox="0 0 288 288" fill="none" version="1.2" baseProfile="tiny-ps" xmlns="http://www.w3.org/2000/svg">
  <title>bimi-svg-tiny-12-ps</title>
  <path d="M92.15 215.76C90.21 214.59 88.4 213.38 86.68 212.14C88.36 213.42 90.19 214.63 92.15 215.76Z" fill="#ACACAC"/>
  <path d="M138.39 170.5C132.67 171.37 126.61 172.71 120.75 174C108.52 176.69 95.95 179.45 87.58 177.79C75.58 185.95 74.47 201.54 92.24 215.82C101.78 221.3 114.39 224.89 128.33 224.89C135.85 224.89 143.76 223.85 151.78 221.49C171.84 215.6 179.65 200.36 176.98 188.36C174.63 177.77 163.1 166.74 138.39 170.5Z" fill="#ACACAC"/>
  <path d="M171 63.57C101.79 71.78 16.96 170.49 92.28 215.84C41.79 170.71 151.52 151.89 187 140.75C251.97 120.34 225.51 57.11 171 63.57ZM167.99 116.28C152.6 121.12 131.63 125.23 106.77 136.34C121.12 113.63 138.44 95.29 163.36 92.34C182.73 90.04 200.35 106.11 168 116.27L167.99 116.28Z" fill="#047CA9"/>
</svg>