<svg width="60" height="60" viewBox="0 0 60 60" fill="none" xmlns="http://www.w3.org/2000/svg">
<circle cx="25.5758" cy="26.5758" r="9.57581" fill="#D4E1F3"/>
<path d="M46.7274 26.3637H46.0001V14C46.0001 13.8037 45.9201 13.6218 45.7892 13.4837L39.2438 6.9382C39.1056 6.80729 38.9238 6.72729 38.7274 6.72729H16.182C14.982 6.72729 14.0001 7.70911 14.0001 8.90911V20.5455H13.2729C11.6656 20.5455 10.3638 21.8473 10.3638 23.4546V50.3637C10.3638 51.9709 11.6656 53.2728 13.2729 53.2728H46.7274C48.3347 53.2728 49.6365 51.9709 49.6365 50.3637V29.2728C49.6365 27.6655 48.3274 26.3637 46.7274 26.3637ZM39.4547 9.20729L43.5201 13.2727H40.182C39.782 13.2727 39.4547 12.9455 39.4547 12.5455V9.20729ZM15.4547 8.90911C15.4547 8.50911 15.782 8.18184 16.182 8.18184H38.0001V12.5455C38.0001 13.7455 38.982 14.7273 40.182 14.7273H44.5456V26.3637H29.4474C29.062 26.3637 28.691 26.2109 28.422 25.9418L23.8838 21.4037C23.331 20.8509 22.6038 20.5455 21.8256 20.5455H15.4547V8.90911ZM48.182 50.3637C48.182 51.1637 47.5274 51.8182 46.7274 51.8182H13.2729C12.4729 51.8182 11.8183 51.1637 11.8183 50.3637V23.4546C11.8183 22.6546 12.4729 22 13.2729 22H21.8256C22.211 22 22.582 22.1528 22.851 22.4291L27.3892 26.9673C27.9347 27.5128 28.6692 27.8182 29.4474 27.8182H46.7274C47.5274 27.8182 48.182 28.4727 48.182 29.2728V50.3637Z" fill="#093166"/>
<path d="M17.6365 11.0909H27.3819C27.7819 11.0909 28.1092 10.7636 28.1092 10.3636C28.1092 9.96363 27.7819 9.63635 27.3819 9.63635H17.6365C17.2365 9.63635 16.9092 9.96363 16.9092 10.3636C16.9092 10.7636 17.2365 11.0909 17.6365 11.0909Z" fill="#093166"/>
<path d="M17.6365 14.7273H34.611C35.011 14.7273 35.3383 14.4 35.3383 14C35.3383 13.6 35.011 13.2727 34.611 13.2727H17.6365C17.2365 13.2727 16.9092 13.6 16.9092 14C16.9092 14.4 17.2365 14.7273 17.6365 14.7273Z" fill="#093166"/>
<path d="M35.3383 17.6363C35.3383 17.2363 35.011 16.9091 34.611 16.9091H17.6365C17.2365 16.9091 16.9092 17.2363 16.9092 17.6363C16.9092 18.0363 17.2365 18.3636 17.6365 18.3636H34.611C35.011 18.3636 35.3383 18.0363 35.3383 17.6363Z" fill="#093166"/>
<path d="M16.5455 26.3636H14.7273C14.3273 26.3636 14 26.6909 14 27.0909C14 27.4909 14.3273 27.8182 14.7273 27.8182H16.5455C16.9455 27.8182 17.2727 27.4909 17.2727 27.0909C17.2727 26.6909 16.9527 26.3636 16.5455 26.3636Z" fill="#093166"/>
<path d="M14.7346 24.9091H20.5528C20.9528 24.9091 21.2801 24.5819 21.2801 24.1819C21.2801 23.7819 20.9528 23.4546 20.5528 23.4546H14.7346C14.3346 23.4546 14.0073 23.7819 14.0073 24.1819C14.0073 24.5819 14.3273 24.9091 14.7346 24.9091Z" fill="#093166"/>
<path d="M38.8726 38.1164L37.0617 37.7527C36.9163 37.2873 36.7272 36.8291 36.5017 36.3927L37.5272 34.8509C37.7163 34.56 37.6799 34.1745 37.4326 33.9345L35.5199 32.0291C35.2726 31.7818 34.8872 31.7455 34.6035 31.9418L33.069 32.96C32.6326 32.7273 32.1745 32.5382 31.7017 32.3927L31.3381 30.5818C31.2726 30.24 30.9745 30 30.6254 30H27.9272C27.5781 30 27.2799 30.2473 27.2145 30.5818L26.8508 32.3927C26.3781 32.5382 25.9272 32.7273 25.4835 32.96L23.9563 31.9345C23.6654 31.7455 23.2872 31.7818 23.0399 32.0218L21.1272 33.9345C20.8799 34.1818 20.8435 34.5673 21.0326 34.8509L22.0508 36.3855C21.8181 36.8218 21.629 37.28 21.4835 37.7527L19.6726 38.1164C19.3308 38.1818 19.0908 38.48 19.0908 38.8291V41.5273C19.0908 41.8764 19.3381 42.1745 19.6726 42.24L21.4835 42.6036C21.629 43.0764 21.8181 43.5345 22.0508 43.9709L21.0326 45.5055C20.8435 45.7964 20.8799 46.1745 21.1272 46.4218L23.0399 48.3345C23.2872 48.5818 23.6726 48.6182 23.9563 48.4291L25.4908 47.4109C25.9272 47.6436 26.3854 47.8327 26.8581 47.9782L27.2217 49.7891C27.2872 50.1309 27.5854 50.3709 27.9345 50.3709H30.6326C30.9817 50.3709 31.2799 50.1236 31.3454 49.7891L31.709 47.9782C32.1817 47.8327 32.6399 47.6436 33.0835 47.4109L34.6181 48.4291C34.909 48.6182 35.2872 48.5818 35.5345 48.3345L37.4472 46.4218C37.6945 46.1745 37.7308 45.7891 37.5345 45.5055L36.509 43.9709C36.7417 43.5345 36.9308 43.0764 37.0763 42.6109L38.8872 42.2473C39.229 42.1818 39.469 41.8836 39.469 41.5345V38.8364C39.4545 38.4873 39.2072 38.1891 38.8726 38.1164ZM37.9999 40.9382L36.3345 41.2727C36.0581 41.3309 35.8399 41.5418 35.7745 41.8182C35.6217 42.4582 35.3672 43.0618 35.0254 43.6291C34.8799 43.8691 34.8872 44.1745 35.0399 44.4145L35.9854 45.8255L34.9163 46.8945L33.5054 45.9564C33.2726 45.8036 32.9672 45.7964 32.7199 45.9418C32.1599 46.2836 31.549 46.5382 30.9017 46.6909C30.6254 46.7564 30.4145 46.9745 30.3563 47.2509L30.029 48.9091H28.5163L28.1817 47.2436C28.1235 46.9673 27.9126 46.7491 27.6363 46.6836C26.9963 46.5309 26.3854 46.2764 25.8254 45.9345C25.5854 45.7891 25.2799 45.7964 25.0399 45.9491L23.629 46.8873L22.5599 45.8182L23.4981 44.4073C23.6581 44.1745 23.6581 43.8691 23.5126 43.6218C23.1708 43.0545 22.9163 42.4509 22.7635 41.8109C22.6981 41.5345 22.4799 41.3236 22.2035 41.2655L20.5454 40.9382V39.4255L22.2108 39.0909C22.4872 39.0327 22.7054 38.8218 22.7708 38.5455C22.9308 37.8982 23.1781 37.2873 23.5199 36.7273C23.6654 36.4873 23.6581 36.1818 23.5054 35.9418L22.5672 34.5309L23.6363 33.4618L25.0472 34.4073C25.2799 34.5673 25.5854 34.5673 25.8326 34.4218C26.3999 34.08 27.0035 33.8255 27.6435 33.6727C27.9199 33.6073 28.1308 33.3891 28.189 33.1127L28.5163 31.4545H30.029L30.3635 33.12C30.4217 33.3964 30.6326 33.6145 30.909 33.68C31.5563 33.84 32.1672 34.0873 32.7272 34.4291C32.9672 34.5745 33.2726 34.5673 33.5126 34.4145L34.9235 33.4764L35.9926 34.5382L35.0545 35.9491C34.9017 36.1818 34.8945 36.4873 35.0326 36.7273C35.3745 37.3018 35.629 37.9127 35.7817 38.5455C35.8472 38.8218 36.0654 39.0327 36.3417 39.0909L37.9999 39.4255V40.9382Z" fill="#093166"/>
<path d="M29.2728 35.8182C26.8655 35.8182 24.9092 37.7746 24.9092 40.1819C24.9092 42.5891 26.8655 44.5455 29.2728 44.5455C31.6801 44.5455 33.6365 42.5891 33.6365 40.1819C33.6365 37.7746 31.6801 35.8182 29.2728 35.8182ZM29.2728 43.091C27.6655 43.091 26.3637 41.7891 26.3637 40.1819C26.3637 38.5746 27.6655 37.2728 29.2728 37.2728C30.8801 37.2728 32.1819 38.5746 32.1819 40.1819C32.1819 41.7891 30.8801 43.091 29.2728 43.091Z" fill="#093166"/>
</svg>
