<svg width="60" height="60" viewBox="0 0 60 60" fill="none" xmlns="http://www.w3.org/2000/svg">
<circle cx="29.5758" cy="30.5758" r="9.57581" fill="#D4E1F3"/>
<g clip-path="url(#clip0_462_389)">
<path d="M14.2553 46.3938C14.3362 46.4413 14.4284 46.4663 14.5223 46.4663C14.6031 46.4663 14.6829 46.4471 14.7551 46.4104L25.2585 40.9789L35.4137 46.4074C35.5579 46.4843 35.7307 46.4857 35.876 46.4113L46.713 40.8594C46.883 40.7761 46.9933 40.6058 47 40.4166V15.0659C46.9925 14.8904 46.8967 14.7306 46.7455 14.6412C46.5941 14.5517 46.408 14.545 46.2505 14.6231L35.6565 20.0566L25.4979 14.7117C25.3546 14.6364 25.1837 14.6353 25.0393 14.7087L14.2887 20.1741C14.1178 20.2572 14.0069 20.4278 14 20.6178V45.9684C14.0064 46.1446 14.1028 46.3051 14.2553 46.3938ZM35.1228 45.1119L25.7349 40.1143V15.973L35.1228 20.8926V45.1119ZM46.0043 40.1126L36.1185 45.1781V20.9465L46.0043 15.8811V40.1126ZM14.9957 20.9228L24.7392 15.9683V40.1174L14.9957 45.1503V20.9228Z" fill="#093166"/>
<path d="M38.1067 26.0294C38.1856 26.0294 38.2634 26.0105 38.3336 25.9744L44.3742 22.8751C44.5342 22.7948 44.6387 22.6351 44.6481 22.4564C44.6576 22.2775 44.5703 22.1078 44.4197 22.0111C44.2692 21.9144 44.0783 21.9061 43.9197 21.9892L37.8791 25.0887C37.6744 25.1935 37.5683 25.4252 37.6224 25.6488C37.6763 25.8722 37.8766 26.0297 38.1067 26.0294Z" fill="#093166"/>
<path d="M38.1064 29.539C38.1853 29.5387 38.2631 29.5201 38.3334 29.4837L44.374 26.3844C44.534 26.3041 44.6384 26.1444 44.6479 25.9657C44.6573 25.7871 44.5701 25.6171 44.4195 25.5204C44.2689 25.4237 44.0781 25.4154 43.9194 25.4984L37.8789 28.598C37.6742 28.7028 37.5678 28.9345 37.6219 29.1581C37.6761 29.3817 37.8764 29.5393 38.1064 29.539Z" fill="#093166"/>
<path d="M43.9193 29.0084L37.8788 32.1077C37.7196 32.1886 37.616 32.3481 37.6071 32.5261C37.5979 32.7042 37.6849 32.8737 37.8349 32.9701C37.9847 33.0668 38.175 33.0757 38.3333 32.9937L44.3738 29.8941C44.5339 29.8141 44.6383 29.6541 44.6478 29.4754C44.6572 29.2968 44.57 29.1268 44.4194 29.0301C44.2688 28.9334 44.078 28.9251 43.9193 29.0084Z" fill="#093166"/>
<path d="M22.6237 30.4822L16.5829 33.5818C16.424 33.6627 16.3203 33.8221 16.3112 34.0002C16.3023 34.1786 16.389 34.3478 16.539 34.4444C16.689 34.5409 16.8793 34.5497 17.0377 34.4678L23.0782 31.3682C23.2371 31.2874 23.341 31.1279 23.3499 30.9498C23.3591 30.7717 23.2721 30.6023 23.1221 30.5059C22.9721 30.4092 22.782 30.4003 22.6237 30.4822Z" fill="#093166"/>
<path d="M22.6237 33.9921L16.5829 37.0914C16.424 37.1723 16.3203 37.3317 16.3112 37.5101C16.3023 37.6882 16.389 37.8574 16.539 37.954C16.689 38.0504 16.8793 38.0593 17.0377 37.9774L23.0782 34.8778C23.2371 34.7972 23.341 34.6375 23.3499 34.4594C23.3591 34.2813 23.2721 34.1119 23.1221 34.0155C22.9721 33.9188 22.782 33.9099 22.6237 33.9921Z" fill="#093166"/>
<path d="M33.5253 28.7392L27.9382 25.7988C27.6954 25.6738 27.397 25.768 27.2698 26.0097C27.1425 26.2514 27.2339 26.5506 27.4745 26.68L33.0617 29.6201C33.2192 29.7049 33.4101 29.6985 33.5617 29.6035C33.7134 29.5085 33.8023 29.3396 33.7948 29.1609C33.7873 28.982 33.6843 28.8211 33.5253 28.7392Z" fill="#093166"/>
<path d="M27.4746 22.4684L33.0617 25.4085C33.2192 25.4932 33.4101 25.4868 33.5618 25.3918C33.7135 25.2968 33.8024 25.1279 33.7949 24.949C33.7874 24.7704 33.6843 24.6092 33.5254 24.5275L27.9382 21.5872C27.6949 21.4591 27.394 21.5527 27.2659 21.7958C27.1378 22.0392 27.2312 22.3403 27.4746 22.4684Z" fill="#093166"/>
<path d="M23.0948 20.6734C22.9495 20.5828 22.7675 20.5761 22.6158 20.6553L16.5964 23.7546C16.4356 23.8424 16.3386 24.0144 16.3472 24.1974V28.4091C16.3405 28.58 16.4244 28.7417 16.5681 28.8339C16.6431 28.8817 16.7303 28.907 16.8192 28.907C16.8967 28.907 16.9731 28.8881 17.042 28.8522L23.0645 25.7527C23.2265 25.6654 23.3243 25.4935 23.317 25.3098V21.0981C23.3231 20.9273 23.2387 20.7656 23.0948 20.6734ZM22.3213 25.0056L17.3429 27.594V24.5017L22.3213 21.913V25.0056Z" fill="#093166"/>
<path d="M33.5152 33.6526L27.9333 30.7122C27.7833 30.6311 27.6016 30.6366 27.4569 30.7266C27.3104 30.818 27.2235 30.9803 27.2282 31.1528V36.0665C27.2243 36.2496 27.3229 36.4196 27.4844 36.5069L33.0662 39.4473C33.1368 39.4848 33.2157 39.5045 33.2957 39.5045C33.3829 39.5045 33.4682 39.4795 33.5418 39.4328C33.6885 39.3414 33.7758 39.1792 33.7713 39.0067V34.0929C33.7752 33.9099 33.6766 33.7398 33.5152 33.6526ZM32.7756 38.1821L28.2239 35.7659V31.9774L32.7756 34.3935V38.1821Z" fill="#093166"/>
</g>
<defs>
<clipPath id="clip0_462_389">
<rect width="33" height="33" fill="white" transform="translate(14 14)"/>
</clipPath>
</defs>
</svg>
